<?xml version="1.0" standalone="no"?>
<!DOCTYPE svg PUBLIC "-//W3C//DTD SVG 20010904//EN"
 "http://www.w3.org/TR/2001/REC-SVG-20010904/DTD/svg10.dtd">
<svg version="1.0" xmlns="http://www.w3.org/2000/svg"
 width="700.000000pt" height="700.000000pt" viewBox="0 0 700.000000 700.000000"
 preserveAspectRatio="xMidYMid meet">
<metadata>
Created by potrace 1.11, written by Peter Selinger 2001-2013
</metadata>
<g transform="translate(0.000000,700.000000) scale(0.100000,-0.100000)"
fill="#000000" stroke="none">
<path d="M3430 6733 c-119 -12 -339 -68 -435 -113 -11 -5 -45 -19 -75 -31
-500 -203 -1247 -802 -1795 -1440 -232 -269 -376 -464 -546 -741 -50 -81 -156
-293 -188 -378 -18 -47 -37 -94 -41 -105 -13 -32 -39 -117 -44 -147 -3 -15 -7
-31 -9 -35 -3 -5 -8 -28 -11 -53 -3 -25 -9 -56 -12 -70 -3 -14 -7 -72 -8 -130
-5 -180 26 -335 95 -473 57 -113 160 -237 257 -309 87 -65 284 -156 376 -174
10 -2 42 -10 70 -18 60 -17 189 -42 266 -51 30 -4 64 -9 75 -10 11 -2 49 -6
85 -10 36 -3 85 -8 110 -10 223 -24 450 -30 1121 -30 l636 0 -3 -30 c-1 -16
-5 -91 -9 -165 -4 -74 -8 -151 -10 -170 -2 -19 -6 -87 -10 -150 -3 -63 -8
-126 -10 -140 -2 -14 -6 -77 -10 -140 -6 -112 -9 -147 -20 -300 -3 -41 -8
-102 -10 -135 -3 -33 -7 -89 -10 -125 -2 -36 -7 -101 -10 -145 -3 -44 -7 -102
-10 -130 -2 -27 -7 -90 -11 -140 -3 -49 -9 -119 -13 -155 -7 -69 -3 -104 14
-107 6 0 52 -4 103 -7 52 -4 108 -8 125 -11 18 -2 73 -6 122 -10 50 -3 113 -8
140 -10 28 -3 79 -7 115 -10 36 -3 94 -7 130 -10 110 -10 162 -14 255 -20 50
-3 104 -8 122 -10 36 -5 39 1 48 120 3 39 8 95 10 125 3 30 7 91 10 135 3 44
7 100 10 125 2 25 7 83 10 130 3 47 8 105 10 130 2 25 7 95 10 155 4 61 9 118
11 128 2 10 4 43 5 75 0 31 5 100 9 152 5 52 11 140 15 195 13 218 16 272 20
325 2 30 7 114 11 185 4 72 8 137 10 145 1 8 3 24 3 35 1 14 8 20 24 21 60 1
317 15 352 19 22 2 93 7 157 10 65 4 130 8 145 10 16 2 86 6 158 10 71 4 143
8 160 10 16 2 75 6 130 9 55 4 123 8 150 11 70 6 166 14 260 20 44 3 105 8
135 10 30 3 91 8 135 11 248 18 330 25 353 30 20 4 22 9 17 52 -5 46 -8 88
-20 242 -3 41 -8 98 -10 125 -3 28 -7 88 -11 135 -3 47 -7 96 -9 108 -2 13 -7
70 -10 125 -4 56 -8 118 -10 137 -2 19 -7 78 -10 130 -7 99 -17 124 -44 116
-9 -3 -59 -8 -111 -11 -52 -4 -113 -9 -135 -11 -22 -1 -83 -6 -135 -9 -52 -3
-111 -8 -130 -11 -19 -2 -73 -6 -120 -9 -47 -3 -103 -7 -125 -10 -22 -2 -80
-7 -130 -10 -49 -3 -117 -7 -150 -10 -33 -3 -95 -7 -137 -10 -43 -3 -111 -7
-150 -10 -40 -3 -113 -7 -163 -10 -49 -3 -117 -7 -150 -10 -33 -3 -109 -8
-170 -11 -60 -3 -128 -7 -150 -9 l-40 -3 0 661 c0 653 -6 877 -30 1112 -3 28
-8 75 -10 105 -3 30 -8 67 -10 82 -3 15 -7 47 -10 70 -2 24 -7 54 -10 68 -3
14 -10 52 -16 85 -17 96 -58 239 -94 328 -53 132 -112 224 -200 312 -132 134
-274 211 -459 251 -67 15 -249 24 -326 17z m-56 -1250 c13 -43 32 -272 43
-523 14 -314 6 -1351 -11 -1367 -23 -23 -1470 -21 -1596 2 -25 4 -194 19 -202
17 -12 -3 -108 19 -108 25 0 17 95 183 170 296 323 490 894 1063 1387 1390
115 77 287 176 305 177 4 0 9 -8 12 -17z"/>
</g>
</svg>
