<?xml version="1.0" encoding="UTF-8" standalone="no"?>
<svg id="svg2" xmlns:rdf="http://www.w3.org/1999/02/22-rdf-syntax-ns#" xmlns="http://www.w3.org/2000/svg" height="245px" width="245px" version="1.1" xmlns:cc="http://creativecommons.org/ns#" xmlns:dc="http://purl.org/dc/elements/1.1/" viewBox="27 27 245 245">
 <g stroke="#009eff" fill="#009eff">
  <path id="path4" d="m179.9 261.6l0.1-1-39.9-3.2v1z"/>
  <path id="path6" d="m180 260.6l0.1-1-39.9-3.2-0.1 1z"/>
  <path id="path8" d="m180.1 259.6l0.1-1-39.9-3.2-0.1 1z"/>
  <path id="path10" d="m180.2 258.6l0.1-1-39.9-3.2-0.1 1z"/>
  <path id="path12" d="m180.3 257.6v-1l-39.8-3.2-0.1 1z"/>
  <path id="path14" d="m180.3 256.6l0.1-1-39.9-3.2v1z"/>
  <path id="path16" d="m180.4 255.6l0.1-1-39.9-3.2-0.1 1z"/>
  <path id="path18" d="m180.5 254.6l0.1-1-39.9-3.1-0.1 0.9z"/>
  <path id="path20" d="m180.6 253.6l0.1-1-39.9-3.1-0.1 1z"/>
 </g>
 <g stroke="#009fff" fill="#009fff">
  <path id="path22" d="m180.7 252.6v-1l-39.8-3.1-0.1 1z"/>
  <path id="path24" d="m180.7 251.6l0.1-1-39.9-3.1v1z"/>
  <path id="path26" d="m180.8 250.6l0.1-1-39.9-3.1-0.1 1z"/>
  <path id="path28" d="m180.9 249.6l0.1-1-39.9-3.1-0.1 1z"/>
  <path id="path30" d="m181 248.6v-1l-39.8-3.1-0.1 1z"/>
  <path id="path32" d="m181 247.6l0.1-1-39.9-3.1v1z"/>
  <path id="path34" d="m181.1 246.6l0.1-1-39.9-3.1-0.1 1z"/>
  <path id="path36" d="m181.2 245.6l0.1-1-39.9-3.1-0.1 1z"/>
  <path id="path38" d="m181.3 244.6l0.1-1-39.9-3.1-0.1 1z"/>
 </g>
 <g stroke="#00a0ff" fill="#00a0ff">
  <path id="path40" d="m181.4 243.6v-1l-39.9-3.1v1z"/>
  <path id="path42" d="m181.4 242.6l0.1-1-39.9-3.1-0.1 1z"/>
  <path id="path44" d="m181.5 241.6l0.1-1-39.9-3.1-0.1 1z"/>
  <path id="path46" d="m181.6 240.6l0.1-1-39.9-3-0.1 0.9z"/>
  <path id="path48" d="m181.7 239.6v-1l-39.9-3v1z"/>
  <path id="path50" d="m181.7 238.6l0.1-1-39.9-3-0.1 1z"/>
  <path id="path52" d="m181.8 237.6l0.1-1-39.9-3-0.1 1z"/>
  <path id="path54" d="m181.9 236.6l0.1-1-39.9-3-0.1 1z"/>
  <path id="path56" d="m182 235.6v-1l-39.9-3v1z"/>
 </g>
 <g stroke="#00a1ff" fill="#00a1ff">
  <path id="path58" d="m182 234.6l0.1-1-39.9-3-0.1 1z"/>
  <path id="path60" d="m182.1 233.6l0.1-1.1-39.9-2.9-0.1 1z"/>
  <path id="path62" d="m182.2 232.5l0.1-1-39.9-2.9-0.1 1z"/>
  <path id="path64" d="m182.3 231.5v-1l-39.9-2.9v1z"/>
  <path id="path66" d="m182.3 230.5l0.1-1-39.9-2.9-0.1 1z"/>
  <path id="path68" d="m182.4 229.5l0.1-1-39.9-2.8-0.1 0.9z"/>
  <path id="path70" d="m182.5 228.5v-1l-39.8-2.8-0.1 1z"/>
  <path id="path72" d="m182.5 227.5l0.1-1-39.9-2.8v1z"/>
  <path id="path74" d="m182.6 226.5l0.1-1-39.9-2.8-0.1 1z"/>
  <path id="path76" d="m182.7 225.5l0.1-1-39.9-2.8-0.1 1z"/>
 </g>
 <g stroke="#00a2ff" fill="#00a2ff">
  <path id="path78" d="m182.8 224.5v-1l-39.9-2.8v1z"/>
  <path id="path80" d="m182.8 223.5l0.1-1-39.9-2.8-0.1 1z"/>
  <path id="path82" d="m182.9 222.5l0.1-1-39.9-2.8-0.1 1z"/>
  <path id="path84" d="m183 221.5v-1l-39.9-2.8v1z"/>
  <path id="path86" d="m183 220.5l0.1-1-39.9-2.8-0.1 1z"/>
  <path id="path88" d="m183.1 219.5l0.1-1-39.9-2.8-0.1 1z"/>
  <path id="path90" d="m183.2 218.5l0.1-1-40-2.7v0.9z"/>
  <path id="path92" d="m183.3 217.5v-1l-39.9-2.7-0.1 1z"/>
  <path id="path94" d="m183.3 216.5l0.1-1-39.9-2.7-0.1 1z"/>
 </g>
 <g stroke="#00a3ff" fill="#00a3ff">
  <path id="path96" d="m183.4 215.5l0.1-1-40-2.7v1z"/>
  <path id="path98" d="m183.5 214.5v-1l-39.9-2.7-0.1 1z"/>
  <path id="path100" d="m183.5 213.5l0.1-1-39.9-2.7-0.1 1z"/>
  <path id="path102" d="m183.6 212.5l0.1-1-40-2.7v1z"/>
  <path id="path104" d="m183.7 211.5v-1l-39.9-2.7-0.1 1z"/>
  <path id="path106" d="m183.7 210.5l0.1-1-39.9-2.7-0.1 1z"/>
  <path id="path108" d="m183.8 209.5l0.1-1-40-2.7v1z"/>
  <path id="path110" d="m183.9 208.5v-1.1l-39.9-2.6-0.1 1z"/>
  <path id="path112" d="m183.9 207.4l0.1-1-39.9-2.5-0.1 0.9z"/>
 </g>
 <g stroke="#00a4ff" fill="#00a4ff">
  <path id="path114" d="m184 206.4l0.1-1-40-2.5v1z"/>
  <path id="path116" d="m184.1 205.4v-1l-39.9-2.5-0.1 1z"/>
  <path id="path118" d="m184.1 204.4l0.1-1-39.9-2.5-0.1 1z"/>
  <path id="path120" d="m184.2 203.4v-1l-39.9-2.5v1z"/>
  <path id="path122" d="m184.2 202.4l0.1-1-39.9-2.5-0.1 1z"/>
  <path id="path124" d="m184.3 201.4l0.1-1-39.9-2.5-0.1 1z"/>
  <path id="path126" d="m184.4 200.4v-1l-39.9-2.5v1z"/>
  <path id="path128" d="m184.4 199.4l0.1-1-39.9-2.5-0.1 1z"/>
  <path id="path130" d="m184.5 198.4l0.1-1-40-2.5v1z"/>
  <path id="path132" d="m184.6 197.4v-1l-39.9-2.4-0.1 0.9z"/>
 </g>
 <g stroke="#00a5ff" fill="#00a5ff">
  <path id="path134" d="m184.6 196.4l0.1-1-39.9-2.4-0.1 1z"/>
  <path id="path136" d="m184.7 195.4v-1l-39.9-2.4v1z"/>
  <path id="path138" d="m184.7 194.4l0.1-1-39.9-2.4-0.1 1z"/>
  <path id="path140" d="m184.8 193.4l0.1-1.1-40-2.3v1z"/>
  <path id="path142" d="m184.9 192.3v-1l-39.9-2.3-0.1 1z"/>
  <path id="path144" d="m184.9 191.3l0.1-1-40-2.3v1z"/>
  <path id="path146" d="m185 190.3v-1l-39.9-2.3-0.1 1z"/>
  <path id="path148" d="m185 189.3l0.1-1-39.9-2.3-0.1 1z"/>
  <path id="path150" d="m185.1 188.3l0.1-1-40-2.2v0.9z"/>
 </g>
 <g stroke="#00a6ff" fill="#00a6ff">
  <path id="path152" d="m185.2 187.3v-1l-39.9-2.2-0.1 1z"/>
  <path id="path154" d="m185.2 186.3l0.1-1-40-2.2v1z"/>
  <path id="path156" d="m185.3 185.3v-1l-39.9-2.2-0.1 1z"/>
  <path id="path158" d="m185.3 184.3l0.1-1-40-2.2v1z"/>
  <path id="path160" d="m185.4 183.3v-1l-39.9-2.2-0.1 1z"/>
  <path id="path162" d="m185.4 182.3l0.1-1-40-2.2v1z"/>
  <path id="path164" d="m185.5 181.3v-1l-39.9-2.2-0.1 1z"/>
  <path id="path166" d="m185.5 180.3l0.1-1.1-40-2.1v1z"/>
  <path id="path168" d="m185.6 179.2v-1l-39.9-2-0.1 0.9z"/>
 </g>
 <g stroke="#00a7ff" fill="#00a7ff">
  <path id="path170" d="m185.6 178.2l0.1-1-39.9-2-0.1 1z"/>
  <path id="path172" d="m185.7 177.2l0.1-1-40-2v1z"/>
  <path id="path174" d="m185.8 176.2v-1l-39.9-2-0.1 1z"/>
  <path id="path176" d="m185.8 175.2l0.1-1-40-2v1z"/>
  <path id="path178" d="m185.9 174.2v-1l-39.9-2-0.1 1z"/>
  <path id="path180" d="m185.9 173.2l0.1-1-40-2v1z"/>
  <path id="path182" d="m186 172.2v-1l-40-2v1z"/>
  <path id="path184" d="m186 171.2l0.1-1-40-1.9-0.1 0.9z"/>
  <path id="path186" d="m186.1 170.2v-1l-40-1.9v1z"/>
  <path id="path188" d="m186.1 169.2v-1.1l-39.9-1.8-0.1 1z"/>
 </g>
 <g stroke="#00a8ff" fill="#00a8ff">
  <path id="path190" d="m186.1 168.1l0.1-1-40-1.8v1z"/>
  <path id="path192" d="m186.2 167.1v-1l-39.9-1.8-0.1 1z"/>
  <path id="path194" d="m186.2 166.1l0.1-1-40-1.8v1z"/>
  <path id="path196" d="m186.3 165.1v-1l-39.9-1.8-0.1 1z"/>
  <path id="path198" d="m186.3 164.1l0.1-1-40-1.8v1z"/>
  <path id="path200" d="m186.4 163.1v-1l-39.9-1.7-0.1 0.9z"/>
  <path id="path202" d="m186.4 162.1l0.1-1-40-1.7v1z"/>
  <path id="path204" d="m186.5 161.1v-1.1l-40-1.6v1z"/>
  <path id="path206" d="m186.5 160v-1l-39.9-1.6-0.1 1z"/>
 </g>
 <g stroke="#00a9ff" fill="#00a9ff">
  <path id="path208" d="m186.5 159l0.1-1-40-1.6v1z"/>
  <path id="path210" d="m186.6 158v-1l-39.9-1.6-0.1 1z"/>
  <path id="path212" d="m186.6 157l0.1-1-40-1.6v1z"/>
  <path id="path214" d="m186.7 156v-1l-40-1.5v0.9z"/>
  <path id="path216" d="m186.7 155v-1l-39.9-1.5-0.1 1z"/>
  <path id="path218" d="m186.7 154l0.1-1-40-1.5v1z"/>
  <path id="path220" d="m186.8 153v-1.1l-40-1.4v1z"/>
  <path id="path222" d="m186.8 151.9l0.1-1-40-1.4-0.1 1z"/>
  <path id="path224" d="m186.9 150.9v-1l-40-1.4v1z"/>
 </g>
 <g stroke="#0af" fill="#0af">
  <path id="path226" d="m186.9 149.9v-1l-40-1.3v0.9z"/>
  <path id="path228" d="m186.9 148.9l0.1-1-40-1.3-0.1 1z"/>
  <path id="path230" d="m187 147.9v-1l-40-1.3v1z"/>
  <path id="path232" d="m187 146.9v-1.1l-40-1.2v1z"/>
  <path id="path234" d="m187 145.8l0.1-1-40-1.2-0.1 1z"/>
  <path id="path236" d="m187.1 144.8v-1l-40-1.2v1z"/>
  <path id="path238" d="m187.1 143.8v-1l-40-1.1v0.9z"/>
  <path id="path240" d="m187.1 142.8v-1l-39.9-1.1-0.1 1z"/>
  <path id="path242" d="m187.1 141.8l0.1-1-40-1.1v1z"/>
  <path id="path244" d="m187.2 140.8v-1.1l-40-1v1z"/>
 </g>
 <g stroke="#00abff" fill="#00abff">
  <path id="path246" d="m187.2 139.7v-1l-40-1v1z"/>
  <path id="path248" d="m187.2 138.7v-1l-39.9-0.9-0.1 0.9z"/>
  <path id="path250" d="m187.2 137.7l0.1-1-40-0.9v1z"/>
  <path id="path252" d="m187.3 136.7v-1l-40-0.9v1z"/>
  <path id="path254" d="m187.3 135.7v-1.1l-40-0.8v1z"/>
  <path id="path256" d="m187.3 134.6v-1l-40-0.8v1z"/>
  <path id="path258" d="m187.3 133.6l0.1-1-40-0.7-0.1 0.9z"/>
  <path id="path260" d="m187.4 132.6v-1l-40-0.7v1z"/>
  <path id="path262" d="m187.4 131.6v-1l-40-0.7v1z"/>
 </g>
 <g stroke="#00acff" fill="#00acff">
  <path id="path264" d="m187.4 130.6v-1.1l-40-0.6v1z"/>
  <path id="path266" d="m187.4 129.5v-1l-40-0.6v1z"/>
  <path id="path268" d="m187.4 128.5v-1l-40-0.5v0.9z"/>
  <path id="path270" d="m187.4 127.5v-1l-40-0.5v1z"/>
  <path id="path272" d="m187.4 126.5l0.1-1.1-40-0.4-0.1 1z"/>
  <path id="path274" d="m187.5 125.4v-1l-40-0.4v1z"/>
  <path id="path276" d="m187.5 124.4v-1l-40-0.3v0.9z"/>
  <path id="path278" d="m187.5 123.4v-1l-40-0.3v1z"/>
  <path id="path280" d="m187.5 122.4v-1.1l-40-0.2v1z"/>
 </g>
 <g stroke="#00adff" fill="#00adff">
  <path id="path282" d="m187.5 121.3v-1l-40-0.2v1z"/>
  <path id="path284" d="m187.5 120.3v-1l-40-0.1v0.9z"/>
  <path id="path286" d="m187.5 119.3v-1l-40-0.1v1z"/>
  <path id="path288" d="m187.5 118.3v-1.1h-40v1z"/>
  <path id="path290" d="m187.5 117.2v-1l-40 0.1v0.9z"/>
  <path id="path292" d="m187.5 116.2v-1l-40 0.1v1z"/>
  <path id="path294" d="m187.5 115.2v-1.1l-40 0.2v1z"/>
  <path id="path296" d="m187.5 114.1v-1l-40 0.3v0.9z"/>
  <path id="path298" d="m187.5 113.1v-1l-40 0.3v1z"/>
  <path id="path300" d="m187.5 112.1v-1.1l-40 0.4v1z"/>
 </g>
 <g stroke="#00aeff" fill="#00aeff">
  <path id="path302" d="m187.5 111v-1l-40 0.5v0.9z"/>
  <path id="path304" d="m187.5 110l-0.1-1-40 0.5 0.1 1z"/>
  <path id="path306" d="m187.4 109v-1.1l-40 0.6v1z"/>
  <path id="path308" d="m187.4 107.9v-1l-40 0.7v0.9z"/>
  <path id="path310" d="m187.4 106.9v-1.1l-40 0.8v1z"/>
  <path id="path312" d="m187.4 105.8v-1l-40 0.9v0.9z"/>
  <path id="path314" d="m187.4 104.8l-0.1-1-39.9 0.9v1z"/>
  <path id="path316" d="m187.3 103.8v-1.1l-40 1.1 0.1 0.9z"/>
  <path id="path318" d="m187.3 102.7v-1l-40 1.1v1z"/>
 </g>
 <g stroke="#00afff" fill="#00afff">
  <path id="path320" d="m187.3 101.7v-1.1l-40 1.2v1z"/>
  <path id="path322" d="m187.3 100.6l-0.1-1.04-40 1.34 0.1 0.9z"/>
  <path id="path324" d="m187.2 99.56v-1.05l-40 1.45v0.94z"/>
  <path id="path326" d="m187.2 98.51l-0.1-1.05-39.9 1.55v0.95z"/>
  <path id="path328" d="m187.1 97.46v-1.05l-40 1.66 0.1 0.94z"/>
  <path id="path330" d="m187.1 96.41v-1.06l-40 1.77v0.95z"/>
  <path id="path332" d="m187.1 95.35l-0.1-1.06-39.9 1.9v0.93z"/>
  <path id="path334" d="m187 94.29v-1.06l-40 2.02 0.1 0.94z"/>
  <path id="path336" d="m187 93.23l-0.1-1.06-39.9 2.14v0.94z"/>
 </g>
 <g stroke="#00b0ff" fill="#00b0ff">
  <path id="path338" d="m186.9 92.17l-0.1-1.07-39.9 2.28 0.1 0.93z"/>
  <path id="path340" d="m186.8 91.1v-1.07l-39.9 2.43v0.92z"/>
  <path id="path342" d="m186.8 90.03l-0.1-1.07-39.9 2.57 0.1 0.93z"/>
  <path id="path344" d="m186.7 88.96l-0.1-1.08-39.9 2.73 0.1 0.92z"/>
  <path id="path346" d="m186.6 87.88v-1.08l-39.9 2.9v0.91z"/>
  <path id="path348" d="m186.6 86.8l-0.1-1.08-39.9 3.06 0.1 0.92z"/>
  <path id="path350" d="m186.5 85.72l-0.1-1.08-39.9 3.24 0.1 0.9z"/>
  <path id="path352" d="m186.4 84.64l-0.1-1.09-39.8 3.42v0.91z"/>
  <path id="path354" d="m186.3 83.55l-0.1-1.1-39.8 3.63 0.1 0.89z"/>
 </g>
 <g stroke="#00b1ff" fill="#00b1ff">
  <path id="path356" d="m186.2 82.45l-0.1-1.1-39.8 3.84 0.1 0.89z"/>
  <path id="path358" d="m186.1 81.35l-0.1-1.11-39.8 4.07 0.1 0.88z"/>
  <path id="path360" d="m186 80.24l-0.1-1.11-39.8 4.3 0.1 0.88z"/>
  <path id="path362" d="m185.9 79.13l-0.1-1.13-39.8 4.57 0.1 0.86z"/>
  <path id="path364" d="m185.8 78l-0.2-1.12-39.7 4.83 0.1 0.86z"/>
  <path id="path366" d="m185.6 76.88l-0.1-1.14-39.7 5.12 0.1 0.85z"/>
  <path id="path368" d="m185.5 75.74l-0.2-1.15-39.6 5.44 0.1 0.83z"/>
  <path id="path370" d="m185.3 74.59l-0.1-1.16-39.6 5.78 0.1 0.82z"/>
  <path id="path372" d="m185.2 73.43l-0.2-1.17-39.5 6.14 0.1 0.81z"/>
  <path id="path374" d="m185 72.26l-0.2-1.19-39.5 6.54 0.2 0.79z"/>
 </g>
 <g stroke="#00b2ff" fill="#00b2ff">
  <path id="path376" d="m184.8 71.07l-0.2-1.2-39.4 6.97 0.1 0.77z"/>
  <path id="path378" d="m184.6 69.87l-0.2-1.22-39.3 7.45 0.1 0.74z"/>
  <path id="path380" d="m184.4 68.65l-0.3-1.25-39.2 7.98 0.2 0.72z"/>
  <path id="path382" d="m184.1 67.4l-0.2-1.26-39.1 8.55 0.1 0.69z"/>
  <path id="path384" d="m183.9 66.14l-0.3-1.3-39 9.2 0.2 0.65z"/>
  <path id="path386" d="m183.6 64.84l-0.4-1.34-38.7 9.94 0.1 0.6z"/>
  <path id="path388" d="m183.2 63.5l-0.3-1.39-38.6 10.78 0.2 0.55z"/>
  <path id="path390" d="m182.9 62.11l-0.5-1.44-38.2 11.74 0.1 0.48z"/>
  <path id="path392" d="m182.4 60.67l-0.4-1.51-37.9 12.86 0.1 0.39z"/>
 </g>
 <g stroke="#00b3ff" fill="#00b3ff">
  <path id="path394" d="m182 59.16l-0.6-1.6-37.4 14.17 0.1 0.29z"/>
  <path id="path396" d="m181.4 57.56l-0.7-1.72-36.8 15.75 0.1 0.14z"/>
  <path id="path398" d="m180.7 55.84l-0.9-1.87-35.9 17.68v-0.06z"/>
  <path id="path400" d="m179.8 53.97l-1.1-2.07-34.6 20.05-0.2-0.3z"/>
  <path id="path402" d="m178.7 51.9l-1.4-2.35-32.8 23.06-0.4-0.66z"/>
  <path id="path404" d="m177.3 49.55l-2.1-2.58-29.9 26.64-0.8-1z"/>
  <path id="path406" d="m175.2 46.97l-2.3-2.29-26.7 29.82-0.9-0.89z"/>
  <path id="path408" d="m172.9 44.68l-2.3-1.86-23.7 32.28-0.7-0.6z"/>
  <path id="path410" d="m170.6 42.82l-2.4-1.61-20.5 34.4-0.8-0.51z"/>
 </g>
 <g stroke="#00b4ff" fill="#00b4ff">
  <path id="path412" d="m168.2 41.21l-2.5-1.35-17.2 36.15-0.8-0.4z"/>
  <path id="path414" d="m165.7 39.86l-2.6-1.08-13.9 37.54-0.7-0.31z"/>
  <path id="path416" d="m163.1 38.78l-2.5-0.82-10.8 38.56-0.6-0.2z"/>
  <path id="path418" d="m160.6 37.96l-2.5-0.58-7.8 39.26-0.5-0.12z"/>
  <path id="path420" d="m158.1 37.38l-2.3-0.38-5.1 39.7-0.4-0.06z"/>
  <path id="path422" d="m155.8 37l-2.3-0.21-2.5 39.94-0.3-0.03z"/>
  <path id="path424" d="m153.5 36.79l-2.1-0.07-0.3 40.01h-0.1z"/>
  <path id="path426" d="m151.4 36.72l-2 0.04 1.7 39.97z"/>
  <path id="path428" d="m149.4 36.76l-1.9 0.13 3.5 39.85 0.1-0.01z"/>
 </g>
 <g stroke="#00b5ff" fill="#00b5ff">
  <path id="path430" d="m147.5 36.89l-1.8 0.2 5.2 39.67 0.1-0.02z"/>
  <path id="path432" d="m145.7 37.09l-1.8 0.26 6.7 39.45 0.3-0.04z"/>
  <path id="path434" d="m143.9 37.35l-1.6 0.31 8 39.19 0.3-0.05z"/>
  <path id="path436" d="m142.3 37.66l-1.6 0.35 9.2 38.93 0.4-0.09z"/>
  <path id="path438" d="m140.7 38.01l-1.5 0.38 10.3 38.65 0.4-0.1z"/>
  <path id="path440" d="m139.2 38.39l-1.5 0.41 11.3 38.38 0.5-0.14z"/>
  <path id="path442" d="m137.7 38.8l-1.4 0.43 12.2 38.1 0.5-0.15z"/>
  <path id="path444" d="m136.3 39.23l-1.3 0.45 13 37.83 0.5-0.18z"/>
  <path id="path446" d="m135 39.68l-1.4 0.48 13.8 37.55 0.6-0.2z"/>
  <path id="path448" d="m133.6 40.16l-1.3 0.48 14.5 37.29 0.6-0.22z"/>
 </g>
 <g stroke="#00b6ff" fill="#00b6ff">
  <path id="path450" d="m132.3 40.64l-1.2 0.51 15.1 37.02 0.6-0.24z"/>
  <path id="path452" d="m131.1 41.15l-1.2 0.51 15.7 36.76 0.6-0.25z"/>
  <path id="path454" d="m129.9 41.66l-1.2 0.53 16.3 36.51 0.6-0.28z"/>
  <path id="path456" d="m128.7 42.19l-1.2 0.53 16.8 36.28 0.7-0.3z"/>
  <path id="path458" d="m127.5 42.72l-1.2 0.55 17.4 36.03 0.6-0.3z"/>
  <path id="path460" d="m126.3 43.27l-1.1 0.55 17.8 35.81 0.7-0.33z"/>
  <path id="path462" d="m125.2 43.82l-1.1 0.56 18.3 35.59 0.6-0.34z"/>
  <path id="path464" d="m124.1 44.38l-1.1 0.57 18.7 35.37 0.7-0.35z"/>
  <path id="path466" d="m123 44.95l-1.1 0.58 19.1 35.16 0.7-0.37z"/>
 </g>
 <g stroke="#00b7ff" fill="#00b7ff">
  <path id="path468" d="m121.9 45.53l-1 0.59 19.4 34.95 0.7-0.38z"/>
  <path id="path470" d="m120.9 46.12l-1.1 0.59 19.8 34.75 0.7-0.39z"/>
  <path id="path472" d="m119.8 46.71l-1 0.59 20.1 34.56 0.7-0.4z"/>
  <path id="path474" d="m118.8 47.3l-1.1 0.61 20.5 34.37 0.7-0.42z"/>
  <path id="path476" d="m117.7 47.91l-1 0.61 20.8 34.18 0.7-0.42z"/>
  <path id="path478" d="m116.7 48.52l-1 0.61 21.1 34 0.7-0.43z"/>
  <path id="path480" d="m115.7 49.13l-1 0.62 21.4 33.82 0.7-0.44z"/>
  <path id="path482" d="m114.7 49.75l-0.9 0.62 21.6 33.66 0.7-0.46z"/>
  <path id="path484" d="m113.8 50.37l-1 0.63 21.9 33.49 0.7-0.46z"/>
 </g>
 <g stroke="#00b8ff" fill="#00b8ff">
  <path id="path486" d="m112.8 51l-1 0.63 22.2 33.32 0.7-0.46z"/>
  <path id="path488" d="m111.8 51.63l-0.9 0.64 22.4 33.16 0.7-0.48z"/>
  <path id="path490" d="m110.9 52.27l-1 0.64 22.6 33 0.8-0.48z"/>
  <path id="path492" d="m109.9 52.91l-0.9 0.64 22.8 32.85 0.7-0.49z"/>
  <path id="path494" d="m109 53.55l-0.9 0.65 23 32.7 0.7-0.5z"/>
  <path id="path496" d="m108.1 54.2l-0.9 0.66 23.2 32.54 0.7-0.5z"/>
  <path id="path498" d="m107.2 54.86l-1 0.65 23.5 32.4 0.7-0.51z"/>
  <path id="path500" d="m106.2 55.51l-0.9 0.67 23.7 32.25 0.7-0.52z"/>
  <path id="path502" d="m105.3 56.18l-0.9 0.66 23.9 32.11 0.7-0.52z"/>
 </g>
 <g stroke="#00b9ff" fill="#00b9ff">
  <path id="path504" d="m104.4 56.84l-0.9 0.67 24.1 31.97 0.7-0.53z"/>
  <path id="path506" d="m103.5 57.51l-0.8 0.67 24.2 31.83 0.7-0.53z"/>
  <path id="path508" d="m102.7 58.18l-0.9 0.68 24.4 31.7 0.7-0.55z"/>
  <path id="path510" d="m101.8 58.86l-0.9 0.68 24.6 31.56 0.7-0.54z"/>
  <path id="path512" d="m100.9 59.54l-0.9 0.68 24.8 31.43 0.7-0.55z"/>
  <path id="path514" d="m100 60.22l-0.85 0.69 24.95 31.29 0.7-0.55z"/>
  <path id="path516" d="m99.15 60.91l-0.86 0.69 25.11 31.16 0.7-0.56z"/>
  <path id="path518" d="m98.29 61.6l-0.85 0.69 25.26 31.04 0.7-0.57z"/>
  <path id="path520" d="m97.44 62.29l-0.86 0.7 25.42 30.91 0.7-0.57z"/>
  <path id="path522" d="m96.58 62.99l-0.84 0.7 25.56 30.78 0.7-0.57z"/>
 </g>
 <g stroke="#00baff" fill="#00baff">
  <path id="path524" d="m95.74 63.69l-0.85 0.7 25.71 30.66 0.7-0.58z"/>
  <path id="path526" d="m94.89 64.39l-0.84 0.71 25.85 30.53 0.7-0.58z"/>
  <path id="path528" d="m94.05 65.1l-0.83 0.7 25.98 30.42 0.7-0.59z"/>
  <path id="path530" d="m93.22 65.8l-0.83 0.72 26.11 30.29 0.7-0.59z"/>
  <path id="path532" d="m92.39 66.52l-0.83 0.71 26.24 30.17 0.7-0.59z"/>
  <path id="path534" d="m91.56 67.23l-0.82 0.72 26.36 30.05 0.7-0.6z"/>
  <path id="path536" d="m90.74 67.95l-0.82 0.72 26.58 29.93 0.6-0.6z"/>
  <path id="path538" d="m89.92 68.67l-0.81 0.73 26.69 29.81 0.7-0.61z"/>
  <path id="path540" d="m89.11 69.4l-0.81 0.73 26.8 29.69 0.7-0.61z"/>
 </g>
 <g stroke="#0bf" fill="#0bf">
  <path id="path542" d="m88.3 70.13l-0.81 0.73 26.91 29.54 0.7-0.58z"/>
  <path id="path544" d="m87.49 70.86l-0.8 0.73 27.11 29.41 0.6-0.6z"/>
  <path id="path546" d="m86.69 71.59l-0.8 0.74 27.21 29.37 0.7-0.7z"/>
  <path id="path548" d="m85.89 72.33l-0.8 0.74 27.31 29.23 0.7-0.6z"/>
  <path id="path550" d="m85.09 73.07l-0.79 0.74 27.5 29.09 0.6-0.6z"/>
  <path id="path552" d="m84.3 73.81l-0.78 0.75 27.58 28.94 0.7-0.6z"/>
  <path id="path554" d="m83.52 74.56l-0.79 0.75 27.67 28.89 0.7-0.7z"/>
  <path id="path556" d="m82.73 75.31l-0.78 0.75 27.85 28.74 0.6-0.6z"/>
  <path id="path558" d="m81.95 76.06l-0.78 0.76 27.93 28.58 0.7-0.6z"/>
 </g>
 <g stroke="#00bcff" fill="#00bcff">
  <path id="path560" d="m81.17 76.82l-0.77 0.76 28.1 28.52 0.6-0.7z"/>
  <path id="path562" d="m80.4 77.58l-0.77 0.76 28.17 28.36 0.7-0.6z"/>
  <path id="path564" d="m79.63 78.34l-0.77 0.77 28.34 28.29 0.6-0.7z"/>
  <path id="path566" d="m78.86 79.11l-0.77 0.77 28.41 28.12 0.7-0.6z"/>
  <path id="path568" d="m78.09 79.88l-0.76 0.77 28.57 28.05 0.6-0.7z"/>
  <path id="path570" d="m77.33 80.65l-0.76 0.77 28.63 27.88 0.7-0.6z"/>
  <path id="path572" d="m76.57 81.42l-0.75 0.79 28.78 27.79 0.6-0.7z"/>
  <path id="path574" d="m75.82 82.21l-0.76 0.78 28.94 27.61 0.6-0.6z"/>
  <path id="path576" d="m75.06 82.99l-0.74 0.78 28.98 27.53 0.7-0.7z"/>
 </g>
 <g stroke="#00bdff" fill="#00bdff">
  <path id="path578" d="m74.32 83.77l-0.75 0.79 29.13 27.44 0.6-0.7z"/>
  <path id="path580" d="m73.57 84.56l-0.74 0.8 29.27 27.24 0.6-0.6z"/>
  <path id="path582" d="m72.83 85.36l-0.74 0.79 29.41 27.15 0.6-0.7z"/>
  <path id="path584" d="m72.09 86.15l-0.74 0.8 29.45 27.05 0.7-0.7z"/>
  <path id="path586" d="m71.35 86.95l-0.73 0.81 29.58 26.94 0.6-0.7z"/>
  <path id="path588" d="m70.62 87.76l-0.73 0.81 29.73 26.73 0.58-0.6z"/>
  <path id="path590" d="m69.89 88.57l-0.73 0.81 29.85 26.62 0.61-0.7z"/>
  <path id="path592" d="m69.16 89.38l-0.72 0.81 29.96 26.51 0.61-0.7z"/>
  <path id="path594" d="m68.44 90.19l-0.72 0.82 30.08 26.39 0.6-0.7z"/>
 </g>
 <g stroke="#00beff" fill="#00beff">
  <path id="path596" d="m67.72 91.01l-0.72 0.82 30.21 26.27 0.59-0.7z"/>
  <path id="path598" d="m67 91.83l-0.72 0.83 30.33 26.04 0.6-0.6z"/>
  <path id="path600" d="m66.28 92.66l-0.71 0.83 30.46 25.91 0.58-0.7z"/>
  <path id="path602" d="m65.57 93.49l-0.71 0.84 30.58 25.77 0.59-0.7z"/>
  <path id="path604" d="m64.86 94.33l-0.7 0.84 30.7 25.63 0.58-0.7z"/>
  <path id="path606" d="m64.16 95.17l-0.7 0.84 30.82 25.49 0.58-0.7z"/>
  <path id="path608" d="m63.46 96.01l-0.7 0.85 30.95 25.34 0.57-0.7z"/>
  <path id="path610" d="m62.76 96.86l-0.7 0.86 31.08 25.18 0.57-0.7z"/>
  <path id="path612" d="m62.06 97.72l-0.69 0.85 31.21 25.03 0.56-0.7z"/>
 </g>
 <g stroke="#00bfff" fill="#00bfff">
  <path id="path614" d="m61.37 98.57l-0.69 0.87 31.34 24.86 0.56-0.7z"/>
  <path id="path616" d="m60.68 99.44l-0.68 0.86 31.47 24.7 0.55-0.7z"/>
  <path id="path618" d="m60 100.3l-0.69 0.9 31.61 24.5 0.55-0.7z"/>
  <path id="path620" d="m59.31 101.2l-0.67 0.9 31.74 24.3 0.54-0.7z"/>
  <path id="path622" d="m58.64 102.1l-0.68 0.8 31.88 24.2 0.54-0.7z"/>
  <path id="path624" d="m57.96 102.9l-0.67 0.9 32.02 24 0.53-0.7z"/>
  <path id="path626" d="m57.29 103.8l-0.67 0.9 32.16 23.8 0.53-0.7z"/>
  <path id="path628" d="m56.62 104.7l-0.66 0.9 32.3 23.6 0.52-0.7z"/>
  <path id="path630" d="m55.96 105.6l-0.66 0.9 32.45 23.4 0.51-0.7z"/>
  <path id="path632" d="m55.3 106.5l-0.66 1 32.6 23.1 0.51-0.7z"/>
 </g>
 <g stroke="#00c0ff" fill="#00c0ff">
  <path id="path634" d="m54.64 107.5l-0.65 0.9 32.74 23 0.51-0.8z"/>
  <path id="path636" d="m53.99 108.4l-0.65 0.9 32.9 22.8 0.49-0.7z"/>
  <path id="path638" d="m53.34 109.3l-0.64 1 33.05 22.5 0.49-0.7z"/>
  <path id="path640" d="m52.7 110.3l-0.64 0.9 33.21 22.3 0.48-0.7z"/>
  <path id="path642" d="m52.06 111.2l-0.64 1 33.38 22 0.47-0.7z"/>
  <path id="path644" d="m51.42 112.2l-0.63 0.9 33.54 21.8 0.47-0.7z"/>
  <path id="path646" d="m50.79 113.1l-0.63 1 33.72 21.5 0.45-0.7z"/>
  <path id="path648" d="m50.16 114.1l-0.62 1 33.89 21.2 0.45-0.7z"/>
  <path id="path650" d="m49.54 115.1l-0.61 1 34.06 20.9 0.44-0.7z"/>
 </g>
 <g stroke="#00c1ff" fill="#00c1ff">
  <path id="path652" d="m48.93 116.1l-0.61 1 34.24 20.6 0.43-0.7z"/>
  <path id="path654" d="m48.32 117.1l-0.61 1 34.43 20.3 0.42-0.7z"/>
  <path id="path656" d="m47.71 118.1l-0.6 1 34.62 20 0.41-0.7z"/>
  <path id="path658" d="m47.11 119.1l-0.6 1 34.82 19.7 0.4-0.7z"/>
  <path id="path660" d="m46.51 120.1l-0.59 1.1 35.02 19.3 0.39-0.7z"/>
  <path id="path662" d="m45.92 121.2l-0.58 1.1 35.23 18.9 0.37-0.7z"/>
  <path id="path664" d="m45.34 122.3l-0.57 1.1 35.44 18.5 0.36-0.7z"/>
  <path id="path666" d="m44.77 123.4l-0.57 1.1 35.66 18.1 0.35-0.7z"/>
  <path id="path668" d="m44.2 124.5l-0.56 1.1 35.88 17.6 0.34-0.6z"/>
 </g>
 <g stroke="#00c2ff" fill="#00c2ff">
  <path id="path670" d="m43.64 125.6l-0.55 1.1 36.11 17.2 0.32-0.7z"/>
  <path id="path672" d="m43.09 126.7l-0.55 1.2 36.36 16.7 0.3-0.7z"/>
  <path id="path674" d="m42.54 127.9l-0.53 1.2 36.6 16.1 0.29-0.6z"/>
  <path id="path676" d="m42.01 129.1l-0.52 1.2 36.85 15.5 0.27-0.6z"/>
  <path id="path678" d="m41.49 130.3l-0.51 1.2 37.1 14.9 0.26-0.6z"/>
  <path id="path680" d="m40.98 131.5l-0.5 1.3 37.37 14.2 0.23-0.6z"/>
  <path id="path682" d="m40.48 132.8l-0.48 1.3 37.64 13.5 0.21-0.6z"/>
  <path id="path684" d="m40 134.1l-0.47 1.3 37.92 12.8 0.19-0.6z"/>
  <path id="path686" d="m39.53 135.4l-0.45 1.4 38.2 11.9 0.17-0.5z"/>
 </g>
 <g stroke="#00c3ff" fill="#00c3ff">
  <path id="path688" d="m39.08 136.8l-0.42 1.4 38.47 11 0.15-0.5z"/>
  <path id="path690" d="m38.66 138.2l-0.4 1.5 38.75 9.9 0.12-0.4z"/>
  <path id="path692" d="m38.26 139.7l-0.37 1.5 39.02 8.8 0.1-0.4z"/>
  <path id="path694" d="m37.89 141.2l-0.34 1.6 39.28 7.6 0.08-0.4z"/>
  <path id="path696" d="m37.55 142.8l-0.29 1.7 39.52 6.2 0.05-0.3z"/>
  <path id="path698" d="m37.26 144.5l-0.25 1.7 39.74 4.7 0.03-0.2z"/>
  <path id="path700" d="m37.01 146.2l-0.17 1.9 39.89 3 0.02-0.2z"/>
  <path id="path702" d="m36.84 148.1l-0.11 1.9 40 1.1z"/>
  <path id="path704" d="m36.73 150v2.1l40-1z"/>
 </g>
 <g stroke="#00c4ff" fill="#00c4ff">
  <path id="path706" d="m36.73 152.1l0.11 2.1 39.88-3.3 0.01 0.2z"/>
  <path id="path708" d="m36.84 154.2l0.27 2.3 39.58-5.9 0.03 0.3z"/>
  <path id="path710" d="m37.11 156.5l0.44 2.4 39.06-8.7 0.08 0.4z"/>
  <path id="path712" d="m37.55 158.9l0.66 2.5 38.25-11.8 0.15 0.6z"/>
  <path id="path714" d="m38.21 161.4l0.9 2.6 37.12-15 0.23 0.6z"/>
  <path id="path716" d="m39.11 164l1.16 2.5 35.62-18.3 0.34 0.8z"/>
  <path id="path718" d="m40.27 166.5l1.44 2.5 33.74-21.5 0.44 0.7z"/>
  <path id="path720" d="m41.71 169l1.69 2.4 31.52-24.7 0.53 0.8z"/>
  <path id="path722" d="m43.4 171.4l1.99 2.3 28.85-27.8 0.68 0.8z"/>
  <path id="path724" d="m45.39 173.7l2.42 2.3 25.47-31 0.96 0.9z"/>
 </g>
 <g stroke="#00c5ff" fill="#00c5ff">
  <path id="path726" d="m47.81 176l2.54 1.8 22-33.5 0.93 0.7z"/>
  <path id="path728" d="m50.35 177.8l2.25 1.3 19.22-35.1 0.53 0.3z"/>
  <path id="path730" d="m52.6 179.1l2.01 1 16.99-36.2 0.22 0.1z"/>
  <path id="path732" d="m54.61 180.1l1.81 0.8 15.2-37h-0.02z"/>
  <path id="path734" d="m56.42 180.9l1.68 0.7 13.71-37.6-0.19-0.1z"/>
  <path id="path736" d="m58.1 181.6l1.56 0.5 12.48-38-0.33-0.1z"/>
  <path id="path738" d="m59.66 182.1l1.49 0.5 11.41-38.4-0.42-0.1z"/>
  <path id="path740" d="m61.15 182.6l1.42 0.4 10.49-38.6-0.5-0.2z"/>
  <path id="path742" d="m62.57 183l1.37 0.3 9.69-38.8-0.57-0.1z"/>
 </g>
 <g stroke="#00c6ff" fill="#00c6ff">
  <path id="path744" d="m63.94 183.3l1.33 0.4 8.98-39-0.62-0.2z"/>
  <path id="path746" d="m65.27 183.7l1.29 0.3 8.35-39.2-0.66-0.1z"/>
  <path id="path748" d="m66.56 184l1.25 0.2 7.8-39.2-0.7-0.2z"/>
  <path id="path750" d="m67.81 184.2l1.24 0.2 7.29-39.3-0.73-0.1z"/>
  <path id="path752" d="m69.05 184.4l1.22 0.3 6.82-39.5-0.75-0.1z"/>
  <path id="path754" d="m70.27 184.7l1.19 0.2 6.41-39.5-0.78-0.2z"/>
  <path id="path756" d="m71.46 184.9l1.19 0.1 6.01-39.5-0.79-0.1z"/>
  <path id="path758" d="m72.65 185l1.16 0.2 5.66-39.6-0.81-0.1z"/>
  <path id="path760" d="m73.81 185.2l1.16 0.2 5.33-39.7-0.83-0.1z"/>
 </g>
 <g stroke="#00c7ff" fill="#00c7ff">
  <path id="path762" d="m74.97 185.4l1.14 0.1 5.03-39.7-0.84-0.1z"/>
  <path id="path764" d="m76.11 185.5l1.14 0.2 4.74-39.7-0.85-0.2z"/>
  <path id="path766" d="m77.25 185.7l1.12 0.1 4.48-39.7-0.86-0.1z"/>
  <path id="path768" d="m78.37 185.8l1.12 0.1 4.23-39.8h-0.87z"/>
  <path id="path770" d="m79.49 185.9l1.11 0.1 4-39.8-0.88-0.1z"/>
  <path id="path772" d="m80.6 186l1.11 0.1 3.77-39.8-0.88-0.1z"/>
  <path id="path774" d="m81.71 186.1l1.1 0.1 3.56-39.8-0.89-0.1z"/>
  <path id="path776" d="m82.81 186.2l1.09 0.1 3.37-39.8-0.9-0.1z"/>
  <path id="path778" d="m83.9 186.3l1.09 0.1 3.18-39.8-0.9-0.1z"/>
 </g>
 <g stroke="#00c8ff" fill="#00c8ff">
  <path id="path780" d="m84.99 186.4l1.09 0.1 3-39.9h-0.91z"/>
  <path id="path782" d="m86.08 186.5l1.08 0.1 2.83-39.9-0.91-0.1z"/>
  <path id="path784" d="m87.16 186.6l1.08 0.1 2.67-39.9-0.92-0.1z"/>
  <path id="path786" d="m88.24 186.7h1.07l2.53-39.9h-0.93z"/>
  <path id="path788" d="m89.31 186.7l1.07 0.1 2.38-39.9-0.92-0.1z"/>
  <path id="path790" d="m90.38 186.8l1.07 0.1 2.24-40h-0.93z"/>
  <path id="path792" d="m91.45 186.9h1.07l2.1-39.9-0.93-0.1z"/>
  <path id="path794" d="m92.52 186.9l1.06 0.1 1.98-40h-0.94z"/>
  <path id="path796" d="m93.58 187h1.06l1.85-39.9-0.93-0.1z"/>
 </g>
 <g stroke="#00c9ff" fill="#00c9ff">
  <path id="path798" d="m94.64 187l1.06 0.1 1.73-40h-0.94z"/>
  <path id="path800" d="m95.7 187.1h1.05l1.62-39.9-0.94-0.1z"/>
  <path id="path802" d="m96.75 187.1l1.06 0.1 1.51-40h-0.95z"/>
  <path id="path804" d="m97.81 187.2h1.05l1.44-40h-0.98z"/>
  <path id="path806" d="m98.86 187.2h1.05l1.29-39.9-0.9-0.1z"/>
  <path id="path808" d="m99.91 187.2l1.09 0.1 1.2-40h-1z"/>
  <path id="path810" d="m101 187.3h1l1.1-40h-0.9z"/>
  <path id="path812" d="m102 187.3h1l1.1-40h-1z"/>
  <path id="path814" d="m103 187.3l1.1 0.1 0.9-40-0.9-0.1z"/>
 </g>
 <g stroke="#00caff" fill="#00caff">
  <path id="path816" d="m104.1 187.4h1l0.9-40h-1z"/>
  <path id="path818" d="m105.1 187.4h1.1l0.7-40h-0.9z"/>
  <path id="path820" d="m106.2 187.4h1l0.7-40h-1z"/>
  <path id="path822" d="m107.2 187.4h1.1l0.6-40h-1z"/>
  <path id="path824" d="m108.3 187.4h1l0.5-39.9-0.9-0.1z"/>
  <path id="path826" d="m109.3 187.4l1 0.1 0.5-40h-1z"/>
  <path id="path828" d="m110.3 187.5h1.1l0.4-40h-1z"/>
  <path id="path830" d="m111.4 187.5h1l0.3-40h-0.9z"/>
  <path id="path832" d="m112.4 187.5h1l0.3-40h-1z"/>
 </g>
 <g stroke="#00cbff" fill="#00cbff">
  <path id="path834" d="m113.4 187.5h1.1l0.2-40h-1z"/>
  <path id="path836" d="m114.5 187.5h1l0.1-40h-0.9z"/>
  <path id="path838" d="m115.5 187.5h1l0.1-40h-1z"/>
  <path id="path840" d="m116.5 187.5h1.1v-40h-1z"/>
  <path id="path842" d="m117.6 187.5h1l-0.1-40h-0.9z"/>
  <path id="path844" d="m118.6 187.5h1l-0.1-40h-1z"/>
  <path id="path846" d="m119.6 187.5h1l-0.1-40h-1z"/>
  <path id="path848" d="m120.6 187.5h1.1l-0.3-40h-0.9z"/>
  <path id="path850" d="m121.7 187.5h1l-0.3-40h-1z"/>
 </g>
 <g stroke="#0cf" fill="#0cf">
  <path id="path852" d="m122.7 187.5h1l-0.3-40h-1z"/>
  <path id="path854" d="m123.7 187.5h1.1l-0.4-40h-1z"/>
  <path id="path856" d="m124.8 187.5h1l-0.5-40h-0.9z"/>
  <path id="path858" d="m125.8 187.5l1-0.1-0.5-40-1 0.1z"/>
  <path id="path860" d="m126.8 187.4h1l-0.5-40h-1z"/>
  <path id="path862" d="m127.8 187.4h1.1l-0.6-40h-1z"/>
  <path id="path864" d="m128.9 187.4h1l-0.7-40h-0.9z"/>
  <path id="path866" d="m129.9 187.4h1l-0.7-40h-1z"/>
  <path id="path868" d="m130.9 187.4h1l-0.7-40h-1z"/>
  <path id="path870" d="m131.9 187.4l1-0.1-0.7-39.9h-1z"/>
 </g>
 <g stroke="#00cdff" fill="#00cdff">
  <path id="path872" d="m132.9 187.3h1.1l-0.8-40-1 0.1z"/>
  <path id="path874" d="m134 187.3h1l-0.9-40h-0.9z"/>
  <path id="path876" d="m135 187.3h1l-0.9-40h-1z"/>
  <path id="path878" d="m136 187.3h1l-0.9-40h-1z"/>
  <path id="path880" d="m137 187.3l1-0.1-0.9-40-1 0.1z"/>
  <path id="path882" d="m138 187.2h1.1l-1-40h-1z"/>
  <path id="path884" d="m139.1 187.2h1l-1.1-40h-0.9z"/>
  <path id="path886" d="m140.1 187.2h1l-1.1-40h-1z"/>
  <path id="path888" d="m141.1 187.2l1-0.1-1.1-40-1 0.1z"/>
 </g>
 <g stroke="#00ceff" fill="#00ceff">
  <path id="path890" d="m142.1 187.1h1l-1.1-40h-1z"/>
  <path id="path892" d="m143.1 187.1h1l-1.1-40h-1z"/>
  <path id="path894" d="m144.1 187.1l1.1-0.1-1.3-39.9h-0.9z"/>
  <path id="path896" d="m145.2 187h1l-1.3-40-1 0.1z"/>
  <path id="path898" d="m146.2 187h1l-1.3-40h-1z"/>
  <path id="path900" d="m147.2 187l1-0.1-1.3-39.9h-1z"/>
  <path id="path902" d="m148.2 186.9h1l-1.3-40-1 0.1z"/>
  <path id="path904" d="m149.2 186.9h1l-1.3-40h-1z"/>
  <path id="path906" d="m150.2 186.9l1.1-0.1-1.5-39.9h-0.9z"/>
 </g>
 <g stroke="#00cfff" fill="#00cfff">
  <path id="path908" d="m151.3 186.8h1l-1.5-40-1 0.1z"/>
  <path id="path910" d="m152.3 186.8h1l-1.5-40h-1z"/>
  <path id="path912" d="m153.3 186.8l1-0.1-1.5-39.9h-1z"/>
  <path id="path914" d="m154.3 186.7h1l-1.5-40-1 0.1z"/>
  <path id="path916" d="m155.3 186.7h1l-1.5-40h-1z"/>
  <path id="path918" d="m156.3 186.7l1-0.1-1.5-40-1 0.1z"/>
  <path id="path920" d="m157.3 186.6h1.1l-1.7-40h-0.9z"/>
  <path id="path922" d="m158.4 186.6l1-0.1-1.7-39.9h-1z"/>
  <path id="path924" d="m159.4 186.5h1l-1.7-40-1 0.1z"/>
 </g>
 <g stroke="#00d0ff" fill="#00d0ff">
  <path id="path926" d="m160.4 186.5l1-0.1-1.7-39.9h-1z"/>
  <path id="path928" d="m161.4 186.4h1l-1.7-40-1 0.1z"/>
  <path id="path930" d="m162.4 186.4h1l-1.7-40h-1z"/>
  <path id="path932" d="m163.4 186.4l1-0.1-1.7-39.9h-1z"/>
  <path id="path934" d="m164.4 186.3h1l-1.8-40-0.9 0.1z"/>
  <path id="path936" d="m165.4 186.3l1-0.1-1.8-39.9h-1z"/>
  <path id="path938" d="m166.4 186.2h1.1l-1.9-40-1 0.1z"/>
  <path id="path940" d="m167.5 186.2l1-0.1-1.9-39.9h-1z"/>
  <path id="path942" d="m168.5 186.1h1l-1.9-40-1 0.1z"/>
 </g>
 <g stroke="#00d1ff" fill="#00d1ff">
  <path id="path944" d="m169.5 186.1l1-0.1-1.9-39.9h-1z"/>
  <path id="path946" d="m170.5 186h1l-1.9-40-1 0.1z"/>
  <path id="path948" d="m171.5 186l1-0.1-1.9-39.9h-1z"/>
  <path id="path950" d="m172.5 185.9h1l-2-40-0.9 0.1z"/>
  <path id="path952" d="m173.5 185.9l1-0.1-2-39.9h-1z"/>
  <path id="path954" d="m174.5 185.8h1l-2-40-1 0.1z"/>
  <path id="path956" d="m175.5 185.8l1.1-0.1-2.1-39.9h-1z"/>
  <path id="path958" d="m176.6 185.7h1l-2.1-40-1 0.1z"/>
  <path id="path960" d="m177.6 185.7l1-0.1-2.1-39.9h-1z"/>
 </g>
 <g stroke="#00d2ff" fill="#00d2ff">
  <path id="path962" d="m178.6 185.6h1l-2.1-40-1 0.1z"/>
  <path id="path964" d="m179.6 185.6l1-0.1-2.1-39.9h-1z"/>
  <path id="path966" d="m180.6 185.5h1l-2.2-40-0.9 0.1z"/>
  <path id="path968" d="m181.6 185.5l1-0.1-2.2-39.9h-1z"/>
  <path id="path970" d="m182.6 185.4h1l-2.2-40-1 0.1z"/>
  <path id="path972" d="m183.6 185.4l1-0.1-2.2-39.9h-1z"/>
  <path id="path974" d="m184.6 185.3l1-0.1-2.2-39.9-1 0.1z"/>
  <path id="path976" d="m185.6 185.2h1l-2.2-39.9h-1z"/>
  <path id="path978" d="m186.6 185.2l1-0.1-2.2-39.9-1 0.1z"/>
 </g>
 <g stroke="#00d3ff" fill="#00d3ff">
  <path id="path980" d="m187.6 185.1h1.1l-2.3-40-1 0.1z"/>
  <path id="path982" d="m188.7 185.1l1-0.1-2.3-39.9h-1z"/>
  <path id="path984" d="m189.7 185h1l-2.4-40-0.9 0.1z"/>
  <path id="path986" d="m190.7 185l1-0.1-2.4-39.9h-1z"/>
  <path id="path988" d="m191.7 184.9l1-0.1-2.4-39.9-1 0.1z"/>
  <path id="path990" d="m192.7 184.8h1l-2.4-39.9h-1z"/>
  <path id="path992" d="m193.7 184.8l1-0.1-2.4-39.9-1 0.1z"/>
  <path id="path994" d="m194.7 184.7h1l-2.4-40-1 0.1z"/>
  <path id="path996" d="m195.7 184.7l1-0.1-2.4-39.9h-1z"/>
 </g>
 <g stroke="#00d4ff" fill="#00d4ff">
  <path id="path998" d="m196.7 184.6l1-0.1-2.4-39.9-1 0.1z"/>
  <path id="path1000" d="m197.7 184.5h1l-2.4-39.9h-1z"/>
  <path id="path1002" d="m198.7 184.5l1-0.1-2.4-39.9-1 0.1z"/>
  <path id="path1004" d="m199.7 184.4h1l-2.5-40-0.9 0.1z"/>
  <path id="path1006" d="m200.7 184.4l1-0.1-2.5-39.9h-1z"/>
  <path id="path1008" d="m201.7 184.3l1-0.1-2.5-39.9-1 0.1z"/>
  <path id="path1010" d="m202.7 184.2h1.1l-2.6-40-1 0.1z"/>
  <path id="path1012" d="m203.8 184.2l1-0.1-2.6-39.9h-1z"/>
  <path id="path1014" d="m204.8 184.1l1-0.1-2.6-39.9-1 0.1z"/>
 </g>
 <g stroke="#00d5ff" fill="#00d5ff">
  <path id="path1016" d="m205.8 184h1l-2.6-39.9h-1z"/>
  <path id="path1018" d="m206.8 184l1-0.1-2.6-39.9-1 0.1z"/>
  <path id="path1020" d="m207.8 183.9l1-0.1-2.6-39.9-1 0.1z"/>
  <path id="path1022" d="m208.8 183.8h1l-2.6-39.9h-1z"/>
  <path id="path1024" d="m209.8 183.8l1-0.1-2.7-39.9-0.9 0.1z"/>
  <path id="path1026" d="m210.8 183.7l1-0.1-2.7-39.9-1 0.1z"/>
  <path id="path1028" d="m211.8 183.6h1l-2.7-39.9h-1z"/>
  <path id="path1030" d="m212.8 183.6l1-0.1-2.7-39.9-1 0.1z"/>
  <path id="path1032" d="m213.8 183.5l1-0.1-2.7-39.9-1 0.1z"/>
 </g>
 <g stroke="#00d6ff" fill="#00d6ff">
  <path id="path1034" d="m214.8 183.4h1l-2.7-39.9h-1z"/>
  <path id="path1036" d="m215.8 183.4l1-0.1-2.7-39.9-1 0.1z"/>
  <path id="path1038" d="m216.8 183.3l1-0.1-2.7-39.9-1 0.1z"/>
  <path id="path1040" d="m217.8 183.2h1l-2.7-39.9h-1z"/>
  <path id="path1042" d="m218.8 183.2l1-0.1-2.7-39.9-1 0.1z"/>
  <path id="path1044" d="m219.8 183.1l1-0.1-2.7-39.9-1 0.1z"/>
  <path id="path1046" d="m220.8 183h1l-2.8-40-0.9 0.1z"/>
  <path id="path1048" d="m221.8 183l1-0.1-2.8-39.9h-1z"/>
  <path id="path1050" d="m222.8 182.9l1.1-0.1-2.9-39.9-1 0.1z"/>
 </g>
 <g stroke="#00d7ff" fill="#00d7ff">
  <path id="path1052" d="m223.9 182.8l1-0.1-2.9-39.9-1 0.1z"/>
  <path id="path1054" d="m224.9 182.7h1l-2.9-39.9h-1z"/>
  <path id="path1056" d="m225.9 182.7l1-0.1-2.9-39.9-1 0.1z"/>
  <path id="path1058" d="m226.9 182.6l1-0.1-2.9-39.9-1 0.1z"/>
  <path id="path1060" d="m227.9 182.5h1l-2.9-39.9h-1z"/>
  <path id="path1062" d="m228.9 182.5l1-0.1-2.9-39.9-1 0.1z"/>
  <path id="path1064" d="m229.9 182.4l1-0.1-2.9-39.9-1 0.1z"/>
  <path id="path1066" d="m230.9 182.3l1-0.1-2.9-39.9-1 0.1z"/>
  <path id="path1068" d="m231.9 182.2h1l-2.9-39.9h-1z"/>
 </g>
 <g stroke="#00d8ff" fill="#00d8ff">
  <path id="path1070" d="m232.9 182.2l1-0.1-3-39.9-0.9 0.1z"/>
  <path id="path1072" d="m233.9 182.1l1-0.1-3-39.9-1 0.1z"/>
  <path id="path1074" d="m234.9 182l1-0.1-3-39.9-1 0.1z"/>
  <path id="path1076" d="m235.9 181.9h1l-3-39.9h-1z"/>
  <path id="path1078" d="m236.9 181.9l1-0.1-3-39.9-1 0.1z"/>
  <path id="path1080" d="m237.9 181.8l1-0.1-3-39.9-1 0.1z"/>
  <path id="path1082" d="m238.9 181.7l1-0.1-3-39.8h-1z"/>
  <path id="path1084" d="m239.9 181.6h1l-3-39.9-1 0.1z"/>
  <path id="path1086" d="m240.9 181.6l1-0.1-3-39.9-1 0.1z"/>
 </g>
 <g stroke="#00d9ff" fill="#00d9ff">
  <path id="path1088" d="m241.9 181.5l1-0.1-3-39.9-1 0.1z"/>
  <path id="path1090" d="m242.9 181.4l1-0.1-3-39.9-1 0.1z"/>
  <path id="path1092" d="m243.9 181.3h1l-3.1-39.9h-0.9z"/>
  <path id="path1094" d="m244.9 181.3l1-0.1-3.1-39.9-1 0.1z"/>
  <path id="path1096" d="m245.9 181.2l1-0.1-3.1-39.9-1 0.1z"/>
  <path id="path1098" d="m246.9 181.1l1-0.1-3.1-39.9-1 0.1z"/>
  <path id="path1100" d="m247.9 181l1-0.1-3.1-39.8h-1z"/>
  <path id="path1102" d="m248.9 180.9h1l-3.1-39.9-1 0.1z"/>
  <path id="path1104" d="m249.9 180.9l1-0.1-3.1-39.9-1 0.1z"/>
 </g>
 <g stroke="#00daff" fill="#00daff">
  <path id="path1106" d="m250.9 180.8l1-0.1-3.1-39.9-1 0.1z"/>
  <path id="path1108" d="m251.9 180.7l1-0.1-3.1-39.8h-1z"/>
  <path id="path1110" d="m252.9 180.6h1l-3.1-39.9-1 0.1z"/>
  <path id="path1112" d="m253.9 180.6l1-0.1-3.1-39.9-1 0.1z"/>
  <path id="path1114" d="m254.9 180.5l1-0.1-3.1-39.9-1 0.1z"/>
  <path id="path1116" d="m255.9 180.4l1-0.1-3.2-39.9-0.9 0.1z"/>
  <path id="path1118" d="m256.9 180.3l1-0.1-3.2-39.8h-1z"/>
  <path id="path1120" d="m257.9 180.2l1-0.1-3.2-39.8-1 0.1z"/>
  <path id="path1122" d="m258.9 180.1h1l-3.2-39.9-1 0.1z"/>
 </g>
 <path id="path1124" fill="#00dbff" d="m259.9 180.1l1-0.1-3.2-39.9-1 0.1z" stroke="#00dbff"/>
 <path id="path1126" fill="#00dbff" d="m260.9 180l0.7-0.1-3.2-39.8h-0.7z" stroke="#00dbff"/>
</svg>
