<svg xmlns="http://www.w3.org/2000/svg" viewBox="0 0 50 50">
    <path style="fill:#1dc376;text-indent:0;text-align:start;line-height:normal;text-transform:none;block-progression:tb;-inkscape-font-specification:Sans" d="M 3 5 C 1.3550302 5 0 6.3550302 0 8 L 0 37 C 0 38.64497 1.3550302 40 3 40 L 20.40625 40 L 19.875 43.375 C 19.726021 44.311912 18.947363 45 18 45 L 17 45 A 1.0001 1.0001 0 0 0 16.90625 45 A 1.001098 1.001098 0 0 0 17 47 L 18 47 L 32 47 L 33 47 A 1.0001 1.0001 0 1 0 33 45 L 32 45 C 31.052637 45 30.273979 44.311912 30.125 43.375 L 29.59375 40 L 47 40 C 48.64497 40 50 38.64497 50 37 L 50 8 C 50 6.3550302 48.64497 5 47 5 L 3 5 z M 3 7 L 47 7 C 47.56503 7 48 7.4349698 48 8 L 48 32 L 2 32 L 2 8 C 2 7.4349698 2.4349698 7 3 7 z M 2 34 L 48 34 L 48 37 C 48 37.56503 47.56503 38 47 38 L 3 38 C 2.4349698 38 2 37.56503 2 37 L 2 34 z M 25 34.90625 C 24.397457 34.90625 23.90625 35.397457 23.90625 36 C 23.90625 36.602543 24.397457 37.09375 25 37.09375 C 25.602543 37.09375 26.09375 36.602543 26.09375 36 C 26.09375 35.397457 25.602543 34.90625 25 34.90625 z M 22.46875 40 L 27.53125 40 L 28.125 43.6875 C 28.200255 44.160772 28.366096 44.600715 28.59375 45 L 21.40625 45 C 21.633904 44.600715 21.799745 44.160772 21.875 43.6875 L 22.46875 40 z" color="#000" overflow="visible" font-family="Sans"></path>
</svg>