<?xml version="1.0" encoding="UTF-8" standalone="no"?>
<svg
   xmlns:dc="http://purl.org/dc/elements/1.1/"
   xmlns:cc="http://creativecommons.org/ns#"
   xmlns:rdf="http://www.w3.org/1999/02/22-rdf-syntax-ns#"
   xmlns:svg="http://www.w3.org/2000/svg"
   xmlns="http://www.w3.org/2000/svg"
   xmlns:sodipodi="http://sodipodi.sourceforge.net/DTD/sodipodi-0.dtd"
   xmlns:inkscape="http://www.inkscape.org/namespaces/inkscape"
   version="1.1"
   id="Layer_1"
   x="0px"
   y="0px"
   viewBox="0 0 48 48"
   enable-background="new 0 0 48 48"
   xml:space="preserve"
   inkscape:version="0.91 r13725"
   sodipodi:docname="rockestate.svg"><metadata
     id="metadata13"><rdf:RDF><cc:Work
         rdf:about=""><dc:format>image/svg+xml</dc:format><dc:type
           rdf:resource="http://purl.org/dc/dcmitype/StillImage" /><dc:title></dc:title></cc:Work></rdf:RDF></metadata><defs
     id="defs11" /><sodipodi:namedview
     pagecolor="#ffffff"
     bordercolor="#666666"
     borderopacity="1"
     objecttolerance="10"
     gridtolerance="10"
     guidetolerance="10"
     inkscape:pageopacity="0"
     inkscape:pageshadow="2"
     inkscape:window-width="1440"
     inkscape:window-height="897"
     id="namedview9"
     showgrid="false"
     inkscape:zoom="4.9166667"
     inkscape:cx="-8.5423725"
     inkscape:cy="24"
     inkscape:window-x="-8"
     inkscape:window-y="-8"
     inkscape:window-maximized="1"
     inkscape:current-layer="Layer_1" /><path
     fill="#8BC34A"
     d="M40,42H8V20.9L24,9.2l16,11.3V42z"
     id="path3" /><path
     fill="#2E7D32"
     d="M42,25L24,13L6,25v-7L24,6l0,0l18,12V25z"
     id="path5" /><g
     style="font-style:normal;font-weight:normal;font-size:24.05277061px;line-height:125%;font-family:sans-serif;letter-spacing:0px;word-spacing:0px;fill:#000000;fill-opacity:1;stroke:none;stroke-width:1px;stroke-linecap:butt;stroke-linejoin:miter;stroke-opacity:1"
     id="text3341"><path
       d="m 27.550664,29.693102 -0.317102,1.620743 -7.281601,0 q 0.516759,1.996568 1.7147,3.14753 1.362363,1.315386 3.405909,1.315386 2.196225,0 3.805224,-1.080495 l 0.164423,0 0,2.266692 q -1.996568,0.822116 -3.981391,0.822116 -3.217998,0 -5.214566,-1.855634 -1.808655,-1.679466 -2.384137,-4.615595 l -1.338874,0 0.328846,-1.620743 0.810372,0 q -0.03523,-0.469781 -0.03523,-0.951306 0,-0.340591 0.01175,-0.669438 l -1.115729,0 0.328846,-1.620743 0.974795,0 q 0.540248,-3.077063 2.431115,-4.86223 2.043546,-1.926101 5.238054,-1.926101 2.090524,0 3.946158,0.833861 l 0,2.290181 -0.187912,0 q -1.655977,-1.139218 -3.781735,-1.139218 -2.160991,0 -3.546844,1.444575 -1.186196,1.244919 -1.644232,3.358932 l 8.326862,0 -0.317102,1.620743 -8.221161,0 q -0.02349,0.328847 -0.02349,0.669438 0,0.481525 0.03523,0.951306 l 7.868827,0 z"
       style="font-style:normal;font-variant:normal;font-weight:normal;font-stretch:normal;font-family:Tahoma;-inkscape-font-specification:Tahoma;fill:#ffffff"
       id="path3346" /></g></svg>