<svg xmlns="http://www.w3.org/2000/svg" width="50" height="50" viewBox="0 0 50 50">
    <path style="fill:#1dc376" d="M 7.6875 0 C 6.7807212 0 6.0827474 0.61411542 5.875 1.46875 L 5.84375 1.46875 L 5.8125 1.59375 L 0.21875 19.125 C 0.2022846 19.15824 0.17088281 19.184536 0.15625 19.21875 L 0.15625 19.28125 A 1.0001 1.0001 0 0 0 0.0625 19.5625 C 0.059552751 19.575353 0.033943395 19.580809 0.03125 19.59375 A 1.0001 1.0001 0 0 0 0.03125 19.75 C 0.020769672 19.83184 0 19.915609 0 20 L 0 28 C 0 28.361163 0.10922455 28.705478 0.28125 29 C 0.10922455 29.294522 0 29.638837 0 30 L 0 38 C 0 38.361163 0.10922455 38.705478 0.28125 39 C 0.10922455 39.294522 0 39.638837 0 40 L 0 48 C 0 49.093063 0.9069372 50 2 50 L 48 50 C 49.093063 50 50 49.093063 50 48 L 50 40 C 50 39.638837 49.890775 39.294522 49.71875 39 C 49.890775 38.705478 50 38.361163 50 38 L 50 30 C 50 29.638837 49.890775 29.294522 49.71875 29 C 49.890775 28.705478 50 28.361163 50 28 L 50 20 C 50 19.721513 49.91832 19.461153 49.8125 19.21875 A 1.0030471 1.0030471 0 0 0 49.8125 19.1875 L 44.1875 1.59375 L 44.15625 1.46875 L 44.125 1.46875 C 43.916964 0.61297119 43.219279 0 42.3125 0 L 7.6875 0 z M 7.78125 2 L 42.25 2 A 1.0001 1.0001 0 0 0 42.25 2.0625 L 47.34375 18 L 2.625 18 L 7.75 2.0625 A 1.0001 1.0001 0 0 0 7.78125 2 z M 2 20 L 48 20 L 48 28 L 2 28 L 2 20.0625 A 1.0001 1.0001 0 0 0 2 20 z M 43 22 C 41.895 22 41 22.896 41 24 C 41 25.104 41.895 26 43 26 C 44.105 26 45 25.104 45 24 C 45 22.896 44.105 22 43 22 z M 2 30 L 48 30 L 48 38 L 2 38 L 2 30 z M 43 32 C 41.895 32 41 32.896 41 34 C 41 35.104 41.895 36 43 36 C 44.105 36 45 35.104 45 34 C 45 32.896 44.105 32 43 32 z M 2 40 L 48 40 L 48 48 L 2 48 L 2 40 z M 43 42 C 41.895 42 41 42.896 41 44 C 41 45.104 41.895 46 43 46 C 44.105 46 45 45.104 45 44 C 45 42.896 44.105 42 43 42 z"></path>
</svg>