<?xml version="1.0" encoding="UTF-8" standalone="no"?>
<!-- Created with Inkscape (http://www.inkscape.org/) -->
<svg
   xmlns:svg="http://www.w3.org/2000/svg"
   xmlns="http://www.w3.org/2000/svg"
   version="1.0"
   width="998.96454"
   height="486.07086"
   id="svg6488">
  <defs
     id="defs6490" />
  <g
     transform="translate(-278.6324,-36.89271)"
     id="layer1">
    <g
       transform="translate(8.86115,8.865285)"
       id="g7222">
      <path
         d="M 282.95943,141.54286 L 282.95943,38.061013 L 282.95943,36.892709 L 284.14942,36.892709 L 1253.6292,36.892709 L 1254.8191,36.892709 L 1254.8191,38.061013 L 1254.8191,141.54286 L 1254.8191,142.71117 L 1253.6292,142.71117 L 284.14942,142.71117 L 282.95943,142.71117 L 282.95943,141.54286 z "
         style="fill:#0093be;fill-rule:nonzero;stroke:none"
         id="path7058" />
      <path
         d="M 282.95943,504.06468 L 282.95943,401.01554 L 282.95943,399.84723 L 284.14942,399.84723 L 1253.6292,399.84723 L 1254.8191,399.84723 L 1254.8191,401.01554 L 1254.8191,504.06468 L 1254.8191,505.233 L 1253.6292,505.233 L 284.14942,505.233 L 282.95943,505.233 L 282.95943,504.06468 z "
         style="fill:#0093be;fill-rule:nonzero;stroke:none"
         id="path7066" />
      <path
         d="M 1236.1045,286.43476 C 1232.102,302.40165 1222.7988,321.04049 1210.1421,321.04049 C 1207.3296,321.04049 1205.166,320.09935 1203.7597,318.17381 C 1199.7571,312.9056 1200.6226,300.21647 1206.2478,280.43095 C 1212.522,258.16818 1220.2025,247.33969 1229.3976,247.33969 C 1231.7775,247.33969 1233.6165,248.29165 1235.1309,250.23883 C 1239.6743,256.12364 1240.1071,271.00876 1236.1045,286.43476 M 1041.8192,286.96483 C 1036.9512,307.71312 1028.6216,319.62338 1019.102,319.62338 C 1011.5297,319.62338 1008.1761,312.55944 1007.5271,310.99087 C 1008.1761,307.99438 1013.1523,286.89992 1015.5322,277.17484 C 1019.4266,261.99764 1028.1889,250.55254 1035.9776,250.55254 C 1038.3575,250.55254 1040.3046,251.46123 1041.711,253.25697 C 1044.5235,256.81598 1046.9034,265.55666 1041.8192,286.96483 M 943.16197,286.43476 C 939.05126,302.40165 929.74803,321.04049 917.19954,321.04049 C 914.27882,321.04049 912.11528,320.09935 910.70893,318.17381 C 906.7064,312.9056 907.57185,300.21647 913.19701,280.43095 C 919.57944,258.16818 927.15186,247.33969 936.34682,247.33969 C 938.72672,247.33969 940.56571,248.29165 942.08025,250.23883 C 946.62359,256.12364 947.05632,271.00876 943.16197,286.43476 M 1252.8719,246.61491 C 1247.4631,239.33462 1239.1335,235.32126 1229.3976,235.32126 C 1211.4403,235.32126 1196.2955,245.68459 1178.8791,269.9919 C 1164.167,290.67529 1145.6688,316.41053 1132.2549,316.41053 C 1129.0095,316.41053 1126.6297,315.33958 1124.8988,313.14359 C 1120.6799,307.8213 1120.7881,296.05167 1125.007,279.10038 C 1129.7668,259.89901 1138.9619,246.49591 1147.2915,246.49591 C 1153.3493,246.49591 1155.6211,249.88184 1156.3783,251.96966 C 1153.8902,251.79657 1151.1858,252.57545 1149.0223,254.18728 C 1146.1015,256.30754 1144.587,259.61776 1144.587,263.51211 C 1144.587,266.98459 1145.777,270.11089 1147.9405,272.30688 C 1150.1041,274.44878 1152.9166,275.57382 1156.2701,275.57382 C 1164.7079,275.57382 1170.5495,268.56396 1170.5495,258.53599 C 1170.5495,252.15356 1168.1696,246.1173 1164.0588,241.9525 C 1159.4072,237.37662 1153.0248,235.06163 1144.8034,235.06163 C 1124.7907,235.06163 1107.0497,252.21846 1098.3956,262.44116 C 1088.5515,273.92953 1077.3011,285.38545 1071.8922,290.90246 C 1077.1929,273.13984 1076.0029,256.53472 1068.4306,245.81441 C 1063.6708,238.97764 1056.5312,235.21309 1048.4179,235.21309 C 1035.9776,235.21309 1027.7562,240.78418 1023.5373,244.60282 L 1025.7008,236.88983 L 983.40371,236.88983 L 980.91563,247.2207 L 992.70694,247.2207 C 987.18987,265.13477 972.1533,281.63172 965.01369,288.76056 C 965.98724,285.91552 966.85269,281.91297 967.28541,276.68804 C 968.36714,263.39312 964.90551,251.36386 957.874,243.69414 C 952.68156,238.14468 946.19096,235.21309 938.72672,235.21309 C 917.63226,235.21309 899.24225,248.02121 884.20568,273.29129 L 879.66224,281.12328 C 869.92637,298.12866 859.86587,315.70738 843.53122,315.70738 C 839.09596,315.70738 835.41798,313.9441 832.82172,310.44999 C 826.11475,301.56869 825.68202,281.54517 831.95635,259.44467 C 839.74505,231.57835 856.40425,203.36586 873.27982,203.36586 C 876.20062,203.36586 878.58052,204.45845 880.52769,206.6977 C 887.0183,214.02126 887.34276,231.57835 886.47739,238.45838 L 886.36921,239.77814 L 898.59316,239.77814 L 911.57438,192.99171 L 899.78315,192.99171 L 899.45861,193.46769 L 894.59063,200.05565 C 891.88619,196.78872 883.34023,188.79445 864.95021,188.79445 C 843.96394,188.79445 807.18383,211.28439 794.74351,259.56367 C 788.68563,282.95147 791.28189,303.51587 802.09957,317.45985 C 809.78009,327.40128 821.13867,333.11301 833.25444,333.11301 C 853.80799,333.11301 872.08991,317.51394 879.8786,305.23587 C 881.06851,313.64121 886.47739,333.11301 910.49257,333.11301 C 932.01975,333.11301 957.22491,316.81078 983.51189,285.9047 L 963.1747,365.58767 L 993.5723,365.58767 L 1003.6328,324.51297 C 1006.1208,327.76908 1011.9624,333.11301 1023.4291,333.11301 C 1039.6556,333.11301 1066.6998,314.47417 1090.066,287.3759 C 1086.8206,300.89799 1088.6596,313.07868 1095.3666,321.91673 C 1100.7755,329.01311 1108.6724,333.08056 1117.1101,333.08056 C 1145.4525,333.08056 1165.1406,309.46559 1171.8475,300.19484 C 1171.7394,308.79489 1174.4438,316.90814 1179.7445,322.9444 C 1185.4778,329.47828 1193.8074,333.08056 1203.1107,333.08056 C 1227.8831,333.08056 1249.4103,315.83719 1256.8744,290.15604 C 1261.9588,272.29607 1260.5524,256.83761 1252.8719,246.61491"
         style="fill:#0093be;fill-rule:nonzero;stroke:none"
         id="path7068" />
      <path
         d="M 639.72627,281.15574 C 633.77657,303.9702 626.63687,314.13881 616.79282,314.13881 C 614.5211,314.13881 612.79029,313.27341 611.49212,311.48849 C 607.16505,305.83085 607.27323,291.95177 611.92484,275.27093 C 618.30727,251.91557 626.42051,248.76763 633.5602,248.76763 C 635.72374,248.76763 637.56273,249.71958 638.969,251.59104 C 642.97162,256.76189 643.18798,267.53629 639.72627,281.15574 M 392.75887,259.39058 L 362.57754,259.39058 C 374.26059,219.57073 388.21543,201.99201 408.87716,201.14823 L 392.75887,259.39058 z M 747.57844,267.1144 C 749.74198,269.21302 752.44642,270.31643 755.69168,270.31643 C 761.42511,270.31643 767.69936,266.69251 767.69936,256.51308 C 767.69936,251.45041 765.75218,246.88536 762.18229,243.3047 C 756.98986,238.09058 748.44389,235.21309 738.2753,235.21309 C 718.04621,235.21309 703.87508,243.51023 698.68256,258.57925 C 694.78822,269.77555 700.73792,281.71825 715.44995,292.22222 L 717.5053,293.65015 C 726.05126,299.69723 731.24379,303.3536 729.9457,311.12069 C 728.86389,317.28676 722.2651,321.71119 714.04368,321.64628 C 701.60337,321.53811 699.54801,315.05832 699.11529,312.82988 C 701.387,311.82383 707.01216,308.61099 707.01216,301.62277 C 707.01216,298.30175 705.93044,295.59733 703.98327,293.58524 C 700.8461,290.50221 696.51903,290.16686 694.8964,290.16686 C 690.89387,290.16686 683.97053,291.59479 682.78063,301.11434 C 682.67245,302.46655 682.78063,303.99184 682.88881,304.73826 C 681.91518,306.10129 678.02083,311.29377 671.63841,313.33831 C 670.12396,313.80347 667.96042,313.61957 666.44597,312.15919 C 664.39062,310.17955 664.06607,306.415 665.47234,301.53623 C 666.77043,296.60337 681.59064,236.68429 681.59064,236.68429 L 651.51758,236.68429 L 649.24586,244.88408 C 646.97415,241.13035 641.24072,235.21309 628.04323,235.21309 C 607.81413,235.21309 590.72221,254.9986 582.28442,271.93908 C 575.14482,286.17513 561.83906,312.66761 551.56228,312.66761 C 550.48047,312.66761 549.72329,312.29981 549.0742,311.52094 C 547.99239,310.0822 546.58612,305.83085 549.93956,293.52034 C 552.64401,283.41663 574.17119,195.14442 574.17119,195.14442 L 522.78722,195.14442 L 520.08287,207.23858 L 539.33825,207.23858 L 526.03257,260.48316 C 516.18843,299.0049 499.09651,312.66761 487.41347,312.66761 C 484.92539,312.66761 483.19457,311.99692 482.11276,310.61226 C 478.97568,306.68545 481.03104,297.40388 482.54549,290.63201 C 484.70902,281.15574 491.52418,253.86275 492.71408,248.78927 L 514.0249,248.78927 L 517.05388,236.47876 L 495.95943,236.47876 L 503.3154,206.55707 L 491.74054,206.54626 L 491.41599,207.07632 C 476.27124,229.86916 469.45609,237.24681 446.739,237.24681 L 445.76546,237.24681 L 442.95284,248.77845 L 461.12649,248.77845 C 460.36931,252.56463 458.20577,262.70079 458.20577,262.65752 C 448.25345,300.48692 428.99799,316.19418 420.99293,316.19418 C 416.9904,316.19418 414.82687,315.52348 413.63696,313.96573 C 411.68979,311.39113 411.90615,305.72267 414.39414,296.11657 C 419.04576,278.76503 438.4094,209.29394 440.7893,200.92106 L 460.15294,200.92106 L 463.72275,189.28125 L 422.39929,189.18389 C 407.57908,189.18389 390.05443,190.42793 372.9625,199.73112 C 351.65168,211.38175 336.18239,233.19018 326.98742,264.59388 C 326.98742,264.82105 321.36218,287.073 316.27792,303.62404 C 310.97722,321.09458 296.91428,322.97686 291.18085,322.97686 C 287.61105,322.97686 283.7167,321.22439 280.57953,318.17381 L 278.63236,316.21581 L 278.63236,331.93389 L 279.49781,332.15025 C 284.90661,333.42673 291.28903,334.07578 298.53691,334.07578 C 318.44146,334.07578 336.0742,319.72074 345.16107,307.42104 C 352.51713,297.40388 355.00512,288.4793 358.6832,274.95721 L 359.44038,271.96071 L 389.29716,271.96071 C 388.10725,276.23369 384.32109,288.96609 380.96756,301.03862 C 378.26312,311.3695 378.9122,319.42866 383.13109,324.9673 C 387.34998,330.41942 394.81422,333.17792 405.41554,333.17792 C 416.12504,333.17792 435.59678,330.54923 448.68618,313.70612 C 449.01072,317.81683 450.30881,323.16076 454.31142,327.24984 C 457.98941,331.1442 463.50639,333.11301 470.5379,333.11301 C 486.87256,333.11301 505.26266,322.43597 514.24126,311.53176 C 514.45762,315.67493 515.53943,322.50088 519.97469,327.4121 C 523.43631,331.19829 528.30429,333.11301 534.36217,333.11301 C 552.64401,333.11301 569.30321,318.55243 576.87563,306.70708 C 578.17371,314.59316 583.5826,333.11301 605.43423,333.11301 C 619.49726,333.11301 629.88222,324.25334 635.61556,317.82764 C 636.80555,322.71723 640.80808,333.11301 653.46475,333.11301 C 666.98679,333.11301 680.40073,324.11271 686.5668,317.09205 C 692.30014,328.15852 698.68256,333.11301 720.53429,333.11301 C 741.3042,333.11301 758.50431,318.97432 761.53329,305.76594 C 764.77855,291.46498 756.88168,285.66671 743.79228,276.0498 L 742.16965,274.88149 L 739.57339,272.92349 C 733.08278,268.28271 727.45762,264.28017 727.45762,257.40013 C 727.45762,249.92512 733.62368,246.58246 739.57339,246.58246 C 744.54955,246.58246 747.2539,248.54046 748.44389,249.66549 C 746.92944,251.08261 744.33318,254.24137 744.33318,258.80642 C 744.33318,262.04091 745.52309,264.99413 747.57844,267.1144"
         style="fill:#0093be;fill-rule:nonzero;stroke:none"
         id="path7070" />
    </g>
  </g>
</svg>
