<?xml version="1.0" encoding="UTF-8" standalone="no"?>
<!-- Created with Inkscape (http://www.inkscape.org/) -->

<svg
   xmlns:dc="http://purl.org/dc/elements/1.1/"
   xmlns:cc="http://creativecommons.org/ns#"
   xmlns:rdf="http://www.w3.org/1999/02/22-rdf-syntax-ns#"
   xmlns:svg="http://www.w3.org/2000/svg"
   xmlns="http://www.w3.org/2000/svg"
   xmlns:xlink="http://www.w3.org/1999/xlink"
   xmlns:sodipodi="http://sodipodi.sourceforge.net/DTD/sodipodi-0.dtd"
   xmlns:inkscape="http://www.inkscape.org/namespaces/inkscape"
   version="1.0"
   width="881.82526"
   height="883.32587"
   id="svg2"
   inkscape:version="0.48.3.1 r9886"
   sodipodi:docname="AXA_Logo_FR.svg">
  <metadata
     id="metadata77">
    <rdf:RDF>
      <cc:Work
         rdf:about="">
        <dc:format>image/svg+xml</dc:format>
        <dc:type
           rdf:resource="http://purl.org/dc/dcmitype/StillImage" />
        <dc:title></dc:title>
      </cc:Work>
    </rdf:RDF>
  </metadata>
  <sodipodi:namedview
     pagecolor="#ffffff"
     bordercolor="#666666"
     borderopacity="1"
     objecttolerance="10"
     gridtolerance="10"
     guidetolerance="10"
     inkscape:pageopacity="0"
     inkscape:pageshadow="2"
     inkscape:window-width="1229"
     inkscape:window-height="1000"
     id="namedview75"
     showgrid="false"
     fit-margin-top="0"
     fit-margin-left="0"
     fit-margin-right="0"
     fit-margin-bottom="0"
     inkscape:zoom="0.77514632"
     inkscape:cx="362.29849"
     inkscape:cy="-331.17825"
     inkscape:window-x="51"
     inkscape:window-y="24"
     inkscape:window-maximized="1"
     inkscape:current-layer="svg2" />
  <defs
     id="defs4">
    <linearGradient
       id="linearGradient2807">
      <stop
         id="stop2809"
         style="stop-color:#205eb3;stop-opacity:1"
         offset="0" />
      <stop
         id="stop2811"
         style="stop-color:#01adef;stop-opacity:1"
         offset="0.3461872" />
      <stop
         id="stop2813"
         style="stop-color:#1a6abd;stop-opacity:1"
         offset="1" />
    </linearGradient>
    <linearGradient
       id="linearGradient2745">
      <stop
         id="stop2747"
         style="stop-color:#04abec;stop-opacity:1"
         offset="0" />
      <stop
         id="stop2749"
         style="stop-color:#1e60b4;stop-opacity:1"
         offset="1" />
    </linearGradient>
    <linearGradient
       id="linearGradient2680">
      <stop
         id="stop2682"
         style="stop-color:#a4223c;stop-opacity:1"
         offset="0" />
      <stop
         id="stop2688"
         style="stop-color:#e83347;stop-opacity:1"
         offset="0.63838756" />
      <stop
         id="stop2684"
         style="stop-color:#e51736;stop-opacity:1"
         offset="1" />
    </linearGradient>
    <linearGradient
       id="linearGradient2618">
      <stop
         id="stop2620"
         style="stop-color:#df1935;stop-opacity:1"
         offset="0" />
      <stop
         id="stop2622"
         style="stop-color:#a3223b;stop-opacity:1"
         offset="1" />
    </linearGradient>
    <linearGradient
       id="linearGradient2610">
      <stop
         id="stop2612"
         style="stop-color:#000000;stop-opacity:1"
         offset="0" />
      <stop
         id="stop2614"
         style="stop-color:#000000;stop-opacity:0"
         offset="1" />
    </linearGradient>
    <clipPath
       id="clipPath2564">
      <path
         d="m 0.103,9.628 1,0 0,1 -1,0 0,-1 z"
         id="path2566"
         inkscape:connector-curvature="0" />
    </clipPath>
    <clipPath
       id="clipPath2556">
      <path
         d="m 517.093,726.02 c 0.192,-0.064 0.839,-0.255 1.428,-0.429 0.45,-0.133 0.865,-0.256 1.009,-0.305 1.266,-0.425 2.531,-0.848 3.797,-1.272 1.602,-0.538 3.203,-1.073 4.804,-1.609 1.603,-0.536 3.203,-1.075 4.804,-1.609 1.603,-0.538 3.204,-1.072 4.805,-1.61 1.602,-0.537 3.204,-1.072 4.804,-1.608 1.287,-0.435 2.058,-0.626 3.345,-1.056 0.171,-0.056 0.782,-0.258 1.373,-0.451 0.517,-0.169 1.012,-0.332 1.158,-0.381 0.456,0.154 0.911,0.308 1.363,0.462 0.454,0.155 0.909,0.31 1.363,0.465 0.213,0.072 0.425,0.144 0.638,0.217 0.241,0.082 0.481,0.164 0.723,0.245 0.456,0.156 0.908,0.31 1.363,0.466 0.454,0.154 0.91,0.309 1.364,0.465 0.452,0.153 0.905,0.308 1.358,0.462 0.456,0.155 0.91,0.309 1.364,0.463 0.453,0.155 0.909,0.308 1.362,0.465 0.454,0.154 0.908,0.31 1.361,0.465 0.456,0.153 0.908,0.308 1.362,0.463 0.455,0.155 0.907,0.307 1.362,0.463 0.251,0.084 0.84,0.296 1.394,0.494 0.456,0.162 0.884,0.314 1.087,0.387 -0.146,0.049 -0.641,0.211 -1.16,0.38 -0.588,0.193 -1.203,0.394 -1.37,0.451 -1.288,0.43 -2.058,0.623 -3.347,1.053 -1.601,0.539 -3.201,1.074 -4.804,1.61 -1.601,0.537 -3.202,1.073 -4.805,1.61 -1.599,0.537 -3.202,1.072 -4.804,1.609 -1.6,0.536 -3.202,1.074 -4.804,1.609 -1.266,0.425 -2.531,0.848 -3.796,1.271 -0.145,0.05 -0.559,0.173 -1.009,0.306 -0.589,0.175 -1.237,0.365 -1.429,0.43 -0.204,-0.071 -0.545,-0.252 -0.998,-0.413 -0.554,-0.2 -1.144,-0.411 -1.395,-0.497 -0.454,-0.154 -0.996,-0.279 -1.449,-0.433 -0.455,-0.154 -0.907,-0.31 -1.362,-0.465 -0.454,-0.155 -0.908,-0.309 -1.361,-0.462 -0.454,-0.156 -0.91,-0.31 -1.363,-0.466 -0.454,-0.154 -0.907,-0.307 -1.361,-0.463 -0.454,-0.155 -0.909,-0.308 -1.361,-0.463 -0.455,-0.156 -0.909,-0.309 -1.363,-0.464 -0.455,-0.155 -0.909,-0.308 -1.363,-0.463 -0.241,-0.082 -0.482,-0.165 -0.723,-0.246 -0.213,-0.074 -0.425,-0.146 -0.638,-0.219 -0.453,-0.153 -0.909,-0.308 -1.362,-0.463 -0.455,-0.154 -0.909,-0.31 -1.364,-0.464 m 0,0 c 0.192,-0.064 0.839,-0.255 1.428,-0.429 0.45,-0.133 0.865,-0.256 1.009,-0.305 1.266,-0.425 2.531,-0.848 3.797,-1.272 1.602,-0.538 3.203,-1.073 4.804,-1.609 1.603,-0.536 3.203,-1.075 4.804,-1.609 1.603,-0.538 3.204,-1.072 4.805,-1.61 1.602,-0.537 3.204,-1.072 4.804,-1.608 1.287,-0.435 2.058,-0.626 3.345,-1.056 0.171,-0.056 0.782,-0.258 1.373,-0.451 0.517,-0.169 1.012,-0.332 1.158,-0.381 0.456,0.154 0.911,0.308 1.363,0.462 0.454,0.155 0.909,0.31 1.363,0.465 0.213,0.072 0.425,0.144 0.638,0.217 0.241,0.082 0.481,0.164 0.723,0.245 0.456,0.156 0.908,0.31 1.363,0.466 0.454,0.154 0.91,0.309 1.364,0.465 0.452,0.153 0.905,0.308 1.358,0.462 0.456,0.155 0.91,0.309 1.364,0.463 0.453,0.155 0.909,0.308 1.362,0.465 0.454,0.154 0.908,0.31 1.361,0.465 0.456,0.153 0.908,0.308 1.362,0.463 0.455,0.155 0.907,0.307 1.362,0.463 0.251,0.084 0.84,0.296 1.394,0.494 0.456,0.162 0.884,0.314 1.087,0.387 -0.146,0.049 -0.641,0.211 -1.16,0.38 -0.588,0.193 -1.203,0.394 -1.37,0.451 -1.288,0.43 -2.058,0.623 -3.347,1.053 -1.601,0.539 -3.201,1.074 -4.804,1.61 -1.601,0.537 -3.202,1.073 -4.805,1.61 -1.599,0.537 -3.202,1.072 -4.804,1.609 -1.6,0.536 -3.202,1.074 -4.804,1.609 -1.266,0.425 -2.531,0.848 -3.796,1.271 -0.145,0.05 -0.559,0.173 -1.009,0.306 -0.589,0.175 -1.237,0.365 -1.429,0.43 -0.204,-0.071 -0.545,-0.252 -0.998,-0.413 -0.554,-0.2 -1.144,-0.411 -1.395,-0.497 -0.454,-0.154 -0.996,-0.279 -1.449,-0.433 -0.455,-0.154 -0.907,-0.31 -1.362,-0.465 -0.454,-0.155 -0.908,-0.309 -1.361,-0.462 -0.454,-0.156 -0.91,-0.31 -1.363,-0.466 -0.454,-0.154 -0.907,-0.307 -1.361,-0.463 -0.454,-0.155 -0.909,-0.308 -1.361,-0.463 -0.455,-0.156 -0.909,-0.309 -1.363,-0.464 -0.455,-0.155 -0.909,-0.308 -1.363,-0.463 -0.241,-0.082 -0.482,-0.165 -0.723,-0.246 -0.213,-0.074 -0.425,-0.146 -0.638,-0.219 -0.453,-0.153 -0.909,-0.308 -1.362,-0.463 -0.455,-0.154 -0.909,-0.31 -1.364,-0.464"
         id="path2558"
         inkscape:connector-curvature="0" />
    </clipPath>
    <clipPath
       id="clipPath2542">
      <path
         d="m 0.113,8.083 1,0 0,1 -1,0 0,-1 z"
         id="path2544"
         inkscape:connector-curvature="0" />
    </clipPath>
    <clipPath
       id="clipPath2534">
      <path
         d="m 517.542,699.46 c 0.191,-0.063 0.841,-0.251 1.432,-0.424 0.449,-0.132 0.864,-0.254 1.011,-0.304 1.269,-0.417 2.537,-0.837 3.806,-1.254 1.606,-0.532 3.212,-1.062 4.818,-1.594 1.606,-0.529 3.211,-1.062 4.816,-1.591 1.608,-0.53 3.212,-1.06 4.818,-1.591 1.607,-0.531 3.212,-1.061 4.817,-1.591 1.291,-0.429 2.065,-0.619 3.355,-1.043 0.169,-0.055 0.784,-0.254 1.374,-0.445 0.519,-0.167 1.016,-0.328 1.163,-0.377 0.453,0.155 0.905,0.314 1.356,0.468 0.454,0.156 0.907,0.313 1.358,0.469 0.453,0.157 0.903,0.312 1.358,0.468 0.452,0.16 0.904,0.317 1.356,0.472 0.454,0.155 0.906,0.313 1.358,0.469 0.452,0.156 0.904,0.311 1.357,0.468 0.451,0.157 0.903,0.314 1.356,0.469 0.453,0.157 0.906,0.315 1.357,0.473 0.452,0.154 0.904,0.31 1.358,0.469 0.452,0.155 0.903,0.311 1.355,0.467 0.455,0.156 0.907,0.312 1.357,0.47 0.249,0.083 0.837,0.298 1.391,0.501 0.452,0.163 0.877,0.316 1.081,0.388 -0.148,0.05 -0.644,0.209 -1.161,0.377 -0.591,0.19 -1.209,0.389 -1.376,0.445 -1.291,0.426 -2.064,0.615 -3.355,1.043 -1.604,0.531 -3.21,1.061 -4.816,1.59 -1.605,0.532 -3.212,1.062 -4.816,1.591 -1.607,0.531 -3.213,1.062 -4.819,1.593 -1.604,0.53 -3.212,1.059 -4.817,1.592 -1.269,0.419 -2.538,0.837 -3.807,1.255 -0.145,0.05 -0.56,0.17 -1.011,0.304 -0.589,0.172 -1.24,0.361 -1.431,0.424 -0.203,-0.071 -0.631,-0.225 -1.081,-0.39 -0.554,-0.202 -1.14,-0.413 -1.39,-0.502 -0.454,-0.155 -0.906,-0.312 -1.358,-0.468 -0.452,-0.155 -0.905,-0.312 -1.355,-0.468 -0.454,-0.156 -0.905,-0.312 -1.358,-0.468 -0.452,-0.159 -0.905,-0.315 -1.357,-0.472 -0.453,-0.156 -0.905,-0.313 -1.357,-0.467 -0.453,-0.158 -0.905,-0.313 -1.356,-0.47 -0.453,-0.156 -0.905,-0.312 -1.358,-0.468 -0.452,-0.157 -0.905,-0.315 -1.356,-0.472 -0.454,-0.155 -0.905,-0.311 -1.358,-0.468 -0.453,-0.156 -0.904,-0.313 -1.357,-0.47 -0.453,-0.155 -0.905,-0.313 -1.358,-0.468 m 0,0 c 0.191,-0.063 0.841,-0.251 1.432,-0.424 0.449,-0.132 0.864,-0.254 1.011,-0.304 1.269,-0.417 2.537,-0.837 3.806,-1.254 1.606,-0.532 3.212,-1.062 4.818,-1.594 1.606,-0.529 3.211,-1.062 4.816,-1.591 1.608,-0.53 3.212,-1.06 4.818,-1.591 1.607,-0.531 3.212,-1.061 4.817,-1.591 1.291,-0.429 2.065,-0.619 3.355,-1.043 0.169,-0.055 0.784,-0.254 1.374,-0.445 0.519,-0.167 1.016,-0.328 1.163,-0.377 0.453,0.155 0.905,0.314 1.356,0.468 0.454,0.156 0.907,0.313 1.358,0.469 0.453,0.157 0.903,0.312 1.358,0.468 0.452,0.16 0.904,0.317 1.356,0.472 0.454,0.155 0.906,0.313 1.358,0.469 0.452,0.156 0.904,0.311 1.357,0.468 0.451,0.157 0.903,0.314 1.356,0.469 0.453,0.157 0.906,0.315 1.357,0.473 0.452,0.154 0.904,0.31 1.358,0.469 0.452,0.155 0.903,0.311 1.355,0.467 0.455,0.156 0.907,0.312 1.357,0.47 0.249,0.083 0.837,0.298 1.391,0.501 0.452,0.163 0.877,0.316 1.081,0.388 -0.148,0.05 -0.644,0.209 -1.161,0.377 -0.591,0.19 -1.209,0.389 -1.376,0.445 -1.291,0.426 -2.064,0.615 -3.355,1.043 -1.604,0.531 -3.21,1.061 -4.816,1.59 -1.605,0.532 -3.212,1.062 -4.816,1.591 -1.607,0.531 -3.213,1.062 -4.819,1.593 -1.604,0.53 -3.212,1.059 -4.817,1.592 -1.269,0.419 -2.538,0.837 -3.807,1.255 -0.145,0.05 -0.56,0.17 -1.011,0.304 -0.589,0.172 -1.24,0.361 -1.431,0.424 -0.203,-0.071 -0.631,-0.225 -1.081,-0.39 -0.554,-0.202 -1.14,-0.413 -1.39,-0.502 -0.454,-0.155 -0.906,-0.312 -1.358,-0.468 -0.452,-0.155 -0.905,-0.312 -1.355,-0.468 -0.454,-0.156 -0.905,-0.312 -1.358,-0.468 -0.452,-0.159 -0.905,-0.315 -1.357,-0.472 -0.453,-0.156 -0.905,-0.313 -1.357,-0.467 -0.453,-0.158 -0.905,-0.313 -1.356,-0.47 -0.453,-0.156 -0.905,-0.312 -1.358,-0.468 -0.452,-0.157 -0.905,-0.315 -1.356,-0.472 -0.454,-0.155 -0.905,-0.311 -1.358,-0.468 -0.453,-0.156 -0.904,-0.313 -1.357,-0.47 -0.453,-0.155 -0.905,-0.313 -1.358,-0.468"
         id="path2536"
         inkscape:connector-curvature="0" />
    </clipPath>
    <clipPath
       id="clipPath2520">
      <path
         d="m 0,1.976 1,0 0,1 -1,0 0,-1 z"
         id="path2522"
         inkscape:connector-curvature="0" />
    </clipPath>
    <clipPath
       id="clipPath2512">
      <path
         d="m 580.669,721.667 -34.288,-11.422 -34.271,-11.433 34.278,-11.428 34.281,11.431 0,22.852 z"
         id="path2514"
         inkscape:connector-curvature="0" />
    </clipPath>
    <clipPath
       id="clipPath2504">
      <path
         d="m 574.033,678.403 c -20.671,6.715 -41.339,13.431 -62.009,20.146 0.313,0.965 0.537,1.653 0.781,2.405 0.072,0.222 0.144,0.447 0.222,0.685 0.089,0.27 0.182,0.557 0.285,0.875 0.08,0.245 0.165,0.509 0.259,0.799 0.084,0.257 0.174,0.535 0.272,0.835 0.082,0.253 0.169,0.523 0.264,0.811 0.085,0.264 0.176,0.542 0.272,0.838 0.084,0.261 0.173,0.534 0.267,0.822 0.08,0.247 0.164,0.504 0.25,0.775 0.101,0.309 0.207,0.633 0.319,0.975 0.078,0.24 0.159,0.489 0.243,0.746 0.084,0.264 0.172,0.534 0.262,0.813 0.099,0.304 0.201,0.619 0.308,0.946 0.074,0.229 0.15,0.461 0.224,0.69 0.815,2.508 1.63,5.017 2.445,7.525 2.478,7.626 4.5,13.849 6.674,20.54 20.669,-6.716 41.337,-13.433 62.007,-20.149 -2.173,-6.69 -4.195,-12.912 -6.673,-20.539 -0.814,-2.509 -1.63,-5.017 -2.445,-7.526 -0.073,-0.229 -0.149,-0.458 -0.223,-0.69 -0.106,-0.327 -0.208,-0.641 -0.307,-0.945 -0.091,-0.28 -0.178,-0.549 -0.263,-0.811 -0.085,-0.256 -0.167,-0.508 -0.245,-0.75 -0.111,-0.34 -0.217,-0.665 -0.317,-0.973 -0.087,-0.269 -0.171,-0.526 -0.251,-0.774 -0.094,-0.289 -0.183,-0.563 -0.268,-0.823 -0.096,-0.296 -0.186,-0.574 -0.271,-0.836 -0.094,-0.291 -0.181,-0.56 -0.263,-0.812 -0.097,-0.301 -0.188,-0.579 -0.272,-0.837 -0.094,-0.286 -0.179,-0.551 -0.26,-0.799 -0.104,-0.317 -0.197,-0.604 -0.284,-0.874 -0.079,-0.239 -0.152,-0.464 -0.223,-0.683 -0.244,-0.754 -0.467,-1.442 -0.78,-2.405 m 0,0 c -20.671,6.715 -41.339,13.431 -62.009,20.146 0.313,0.965 0.537,1.653 0.781,2.405 0.072,0.222 0.144,0.447 0.222,0.685 0.089,0.27 0.182,0.557 0.285,0.875 0.08,0.245 0.165,0.509 0.259,0.799 0.084,0.257 0.174,0.535 0.272,0.835 0.082,0.253 0.169,0.523 0.264,0.811 0.085,0.264 0.176,0.542 0.272,0.838 0.084,0.261 0.173,0.534 0.267,0.822 0.08,0.247 0.164,0.504 0.25,0.775 0.101,0.309 0.207,0.633 0.319,0.975 0.078,0.24 0.159,0.489 0.243,0.746 0.084,0.264 0.172,0.534 0.262,0.813 0.099,0.304 0.201,0.619 0.308,0.946 0.074,0.229 0.15,0.461 0.224,0.69 0.815,2.508 1.63,5.017 2.445,7.525 2.478,7.626 4.5,13.849 6.674,20.54 20.669,-6.716 41.337,-13.433 62.007,-20.149 -2.173,-6.69 -4.195,-12.912 -6.673,-20.539 -0.814,-2.509 -1.63,-5.017 -2.445,-7.526 -0.073,-0.229 -0.149,-0.458 -0.223,-0.69 -0.106,-0.327 -0.208,-0.641 -0.307,-0.945 -0.091,-0.28 -0.178,-0.549 -0.263,-0.811 -0.085,-0.256 -0.167,-0.508 -0.245,-0.75 -0.111,-0.34 -0.217,-0.665 -0.317,-0.973 -0.087,-0.269 -0.171,-0.526 -0.251,-0.774 -0.094,-0.289 -0.183,-0.563 -0.268,-0.823 -0.096,-0.296 -0.186,-0.574 -0.271,-0.836 -0.094,-0.291 -0.181,-0.56 -0.263,-0.812 -0.097,-0.301 -0.188,-0.579 -0.272,-0.837 -0.094,-0.286 -0.179,-0.551 -0.26,-0.799 -0.104,-0.317 -0.197,-0.604 -0.284,-0.874 -0.079,-0.239 -0.152,-0.464 -0.223,-0.683 -0.244,-0.754 -0.467,-1.442 -0.78,-2.405"
         id="path2506"
         inkscape:connector-curvature="0" />
    </clipPath>
    <clipPath
       id="clipPath2490">
      <path
         d="m 0,2.925 1,0 0,1 -1,0 0,-1 z"
         id="path2492"
         inkscape:connector-curvature="0" />
    </clipPath>
    <clipPath
       id="clipPath2482">
      <path
         d="m 512.106,698.807 -0.003,22.86 34.285,-11.426 -34.282,-11.434 z"
         id="path2484"
         inkscape:connector-curvature="0" />
    </clipPath>
    <clipPath
       id="clipPath2474">
      <path
         d="m 501.238,706.713 c 5.76,7.926 11.518,15.853 17.276,23.779 2.61,-1.896 5.219,-3.793 7.828,-5.688 3.079,-2.236 6.158,-4.473 9.238,-6.711 3.601,-2.615 7.201,-5.233 10.804,-7.849 -5.761,-7.927 -11.518,-15.853 -17.278,-23.778 -3.601,2.617 -7.202,5.233 -10.802,7.849 -3.079,2.236 -6.158,4.473 -9.238,6.71 -2.61,1.896 -5.218,3.792 -7.828,5.688 m 0,0 c 5.76,7.926 11.518,15.853 17.276,23.779 2.61,-1.896 5.219,-3.793 7.828,-5.688 3.079,-2.236 6.158,-4.473 9.238,-6.711 3.601,-2.615 7.201,-5.233 10.804,-7.849 -5.761,-7.927 -11.518,-15.853 -17.278,-23.778 -3.601,2.617 -7.202,5.233 -10.802,7.849 -3.079,2.236 -6.158,4.473 -9.238,6.71 -2.61,1.896 -5.218,3.792 -7.828,5.688"
         id="path2476"
         inkscape:connector-curvature="0" />
    </clipPath>
    <clipPath
       id="clipPath2460">
      <path
         d="m 0,2.496 1,0 0,1 -1,0 0,-1 z"
         id="path2462"
         inkscape:connector-curvature="0" />
    </clipPath>
    <clipPath
       id="clipPath2452">
      <path
         d="m 512.113,725.369 34.278,-11.425 34.276,11.425 0,22.851 -34.276,-11.423 -34.278,-11.428 z"
         id="path2454"
         inkscape:connector-curvature="0" />
    </clipPath>
    <clipPath
       id="clipPath2444">
      <path
         d="m 574.036,704.96 c -20.67,6.717 -41.338,13.432 -62.007,20.148 0.295,0.91 0.444,1.369 0.735,2.267 0.07,0.215 0.148,0.456 0.239,0.734 0.078,0.237 0.162,0.5 0.26,0.798 0.041,0.127 0.084,0.259 0.129,0.398 0.045,0.14 0.092,0.287 0.142,0.44 0.086,0.261 0.176,0.542 0.276,0.849 0.116,0.361 0.245,0.754 0.386,1.188 0.074,0.225 0.151,0.462 0.232,0.711 2.049,6.308 4.099,12.616 6.148,18.924 1.599,4.922 3.199,9.846 4.798,14.769 20.672,-6.716 41.339,-13.432 62.008,-20.147 l 0,-10e-4 c -1.597,-4.923 -3.198,-9.847 -4.798,-14.77 -2.05,-6.308 -4.099,-12.615 -6.149,-18.924 -0.081,-0.247 -0.157,-0.484 -0.23,-0.71 -0.142,-0.434 -0.269,-0.828 -0.386,-1.188 -0.099,-0.306 -0.191,-0.587 -0.275,-0.848 -0.049,-0.154 -0.098,-0.3 -0.143,-0.441 -0.046,-0.139 -0.089,-0.272 -0.132,-0.398 -0.096,-0.298 -0.182,-0.561 -0.258,-0.796 -0.091,-0.279 -0.169,-0.52 -0.239,-0.735 -0.292,-0.899 -0.441,-1.356 -0.736,-2.268 m 0,0 c -20.67,6.717 -41.338,13.432 -62.007,20.148 0.295,0.91 0.444,1.369 0.735,2.267 0.07,0.215 0.148,0.456 0.239,0.734 0.078,0.237 0.162,0.5 0.26,0.798 0.041,0.127 0.084,0.259 0.129,0.398 0.045,0.14 0.092,0.287 0.142,0.44 0.086,0.261 0.176,0.542 0.276,0.849 0.116,0.361 0.245,0.754 0.386,1.188 0.074,0.225 0.151,0.462 0.232,0.711 2.049,6.308 4.099,12.616 6.148,18.924 1.599,4.922 3.199,9.846 4.798,14.769 20.672,-6.716 41.339,-13.432 62.008,-20.147 l 0,-10e-4 c -1.597,-4.923 -3.198,-9.847 -4.798,-14.77 -2.05,-6.308 -4.099,-12.615 -6.149,-18.924 -0.081,-0.247 -0.157,-0.484 -0.23,-0.71 -0.142,-0.434 -0.269,-0.828 -0.386,-1.188 -0.099,-0.306 -0.191,-0.587 -0.275,-0.848 -0.049,-0.154 -0.098,-0.3 -0.143,-0.441 -0.046,-0.139 -0.089,-0.272 -0.132,-0.398 -0.096,-0.298 -0.182,-0.561 -0.258,-0.796 -0.091,-0.279 -0.169,-0.52 -0.239,-0.735 -0.292,-0.899 -0.441,-1.356 -0.736,-2.268"
         id="path2446"
         inkscape:connector-curvature="0" />
    </clipPath>
    <clipPath
       id="clipPath2430">
      <path
         d="m 0,3.451 1,0 0,1 -1,0 0,-1 z"
         id="path2432"
         inkscape:connector-curvature="0" />
    </clipPath>
    <clipPath
       id="clipPath2422">
      <path
         d="m 512.104,725.371 0,22.852 34.287,-11.426 -34.287,-11.426 z"
         id="path2424"
         inkscape:connector-curvature="0" />
    </clipPath>
    <clipPath
       id="clipPath2414">
      <path
         d="m 500.742,737.991 c 8.203,7.388 16.406,14.773 24.61,22.16 2.102,-2.333 4.204,-4.667 6.305,-7 2.551,-2.834 4.377,-4.862 6.445,-7.158 1.003,-1.113 2.006,-2.228 3.01,-3.344 1.756,-1.949 3.512,-3.901 5.271,-5.852 -8.206,-7.387 -16.409,-14.774 -24.614,-22.161 -1.758,1.951 -3.512,3.902 -5.27,5.853 -1.003,1.113 -2.006,2.228 -3.009,3.344 -2.067,2.295 -3.894,4.323 -6.445,7.157 -2.102,2.333 -4.202,4.667 -6.303,7.001 m 0,0 c 8.203,7.388 16.406,14.773 24.61,22.16 2.102,-2.333 4.204,-4.667 6.305,-7 2.551,-2.834 4.377,-4.862 6.445,-7.158 1.003,-1.113 2.006,-2.228 3.01,-3.344 1.756,-1.949 3.512,-3.901 5.271,-5.852 -8.206,-7.387 -16.409,-14.774 -24.614,-22.161 -1.758,1.951 -3.512,3.902 -5.27,5.853 -1.003,1.113 -2.006,2.228 -3.009,3.344 -2.067,2.295 -3.894,4.323 -6.445,7.157 -2.102,2.333 -4.202,4.667 -6.303,7.001"
         id="path2416"
         inkscape:connector-curvature="0" />
    </clipPath>
    <clipPath
       id="clipPath2406">
      <path
         d="m 512,682 71,0 0,82 -71,0 0,-82 z"
         id="path2408"
         inkscape:connector-curvature="0" />
    </clipPath>
    <clipPath
       id="clipPath2398">
      <path
         d="M 0,0 612,0 612,792 0,792 0,0 z"
         id="path2400"
         inkscape:connector-curvature="0" />
    </clipPath>
    <linearGradient
       x1="58.849213"
       y1="785.44873"
       x2="138.16942"
       y2="829.04144"
       id="linearGradient2839"
       xlink:href="#linearGradient2745"
       gradientUnits="userSpaceOnUse"
       gradientTransform="matrix(1.0136976,0,0,1,0.8560965,-342.57257)" />
    <linearGradient
       x1="383.55499"
       y1="1080.2469"
       x2="598.8772"
       y2="571.18347"
       id="linearGradient2841"
       xlink:href="#linearGradient2807"
       gradientUnits="userSpaceOnUse"
       gradientTransform="translate(0.05159996,-342.57257)" />
    <linearGradient
       x1="58.849213"
       y1="785.44873"
       x2="138.16942"
       y2="829.04144"
       id="linearGradient2843"
       xlink:href="#linearGradient2618"
       gradientUnits="userSpaceOnUse"
       gradientTransform="matrix(1.0176112,0,0,1,1.0343527,0)" />
    <linearGradient
       x1="383.55499"
       y1="1080.2469"
       x2="512.33423"
       y2="827.35059"
       id="linearGradient2845"
       xlink:href="#linearGradient2680"
       gradientUnits="userSpaceOnUse" />
    <clipPath
       id="clipPath2920">
      <path
         d="m 454.62,370.131 13.02,0 0,106.26 -13.02,0 0,-106.26 z"
         id="path2922"
         inkscape:connector-curvature="0" />
    </clipPath>
    <clipPath
       id="clipPath2908">
      <path
         d="m 442.56,370.191 10.92,0 0,106.2 -10.92,0 0,-106.2 z"
         id="path2910"
         inkscape:connector-curvature="0" />
    </clipPath>
    <clipPath
       id="clipPath2892">
      <path
         d="m 330.12,430.071 52.38,0 0,46.32 -52.38,0 0,-46.32 z"
         id="path2894"
         inkscape:connector-curvature="0" />
    </clipPath>
    <clipPath
       id="clipPath2882">
      <path
         d="m 330.12,370.611 106.02,0 0,105.78 -106.02,0 0,-105.78 z"
         id="path2884"
         inkscape:connector-curvature="0" />
    </clipPath>
  </defs>
  <path
     inkscape:connector-curvature="0"
     style="fill:#213683;fill-opacity:1;fill-rule:nonzero;stroke:none"
     id="path2886"
     d="m 1.0000001e-6,0 0,883.32586 L 881.82527,883.32586 881.82527,0 0,0 z" />
  <path
     inkscape:connector-curvature="0"
     style="fill:#da2825;fill-opacity:1;fill-rule:evenodd;stroke:none"
     id="path2898"
     d="M 546.70167,436.1609 881.82527,0 l -49.5182,0 -336.6242,436.1609 51.0188,0" />
  <path
     inkscape:connector-curvature="0"
     style="fill:#ffffff;fill-opacity:1;fill-rule:evenodd;stroke:none"
     id="path2902"
     d="m 673.74857,627.23139 c 10.8039,30.09443 19.6489,61.58938 30.011,92.03395 6.7275,18.73191 17.2564,56.91266 29.5109,72.02657 l -83.0306,0 c 0.075,-23.74209 -9.2868,-45.55847 -15.5057,-68.0251 -5.3937,-15.6391 -9.3118,-31.65334 -15.0056,-47.51752 l -1.5005,-6.00222 -1.5006,-5.00184 -1.5005,-4.00148 -1.0004,-4.00148 -1.0004,-2.50092 -0.5001,-1.50055 0,-0.50019 -132.0488,0 -21.0077,29.51089 0.5002,0.50018 0.5002,2.50093 1.5005,4.00147 1.5006,5.00185 2.0007,6.00221 c 3.9681,11.9294 7.5194,24.25061 11.5043,36.01329 8.6531,27.67687 8.7615,29.20244 23.5086,55.52048 l -79.5293,0 c -1.7006,-16.78119 -5.0769,-26.97662 -10.0037,-43.01587 -13.1882,14.13021 -22.6,25.20096 -30.5113,43.01587 l -62.02284,0 c -3.25954,-18.3401 -4.70173,-26.9266 -11.50424,-45.01661 -13.73007,18.75692 -19.19042,22.82509 -29.51089,45.01661 l -61.52269,0 c 27.24338,-24.88418 49.44323,-56.80429 72.02657,-86.03174 l -15.50572,-53.01956 -131.04835,0 0,0.50019 -3.0011,3.00111 -2.00074,3.0011 -2.50092,3.50129 -3.00111,4.00148 -3.50129,5.00185 -4.00148,4.50166 c -11.25415,15.8225 -23.792108,30.69465 -35.012918,46.51716 -16.84788,22.04146 -36.713542,44.50808 -49.518262,69.02546 l -39.01439,0 0,-25.00923 1.50055,-1.50055 0.50018,0 0,-0.50019 2.00074,-2.00073 1.00037,-1.50056 c 3.49296,-3.60133 5.88551,-8.05297 9.50351,-11.50424 9.36178,-11.51258 18.44013,-23.25024 27.51015,-35.01292 25.842862,-32.67038 51.068832,-65.68256 76.02804,-99.03653 34.57942,-48.45121 82.57213,-98.41964 106.03912,-152.55628 l 67.52491,0 c 1.42552,35.81321 11.80435,54.25335 21.00775,88.03248 5.78546,18.31509 11.21247,36.73855 17.00627,55.02029 l 2.00074,6.00222 3.0011,11.00406 1.50056,4.00147 1.00037,4.00148 1.00037,3.00111 1.00037,2.50092 0.50018,1.50055 0,0.50019 23.00849,-29.0107 C 349.55394,576.2876 334.86519,505.70322 311.61495,462.67068 l 79.02912,0 c -0.8253,17.67319 6.0773,30.33619 10.0037,47.01735 4.6767,15.25563 8.1697,30.9114 13.0048,46.01697 10.1288,-13.47997 21.2829,-26.9266 31.5116,-40.51494 11.5877,-16.49776 30.3863,-31.04479 32.0119,-52.51938 l 66.0243,0 c -38.6226,35.99662 -75.6696,91.95893 -110.0406,133.54927 3.8264,11.88772 6.7859,24.14224 10.5039,36.01328 21.1661,-27.2934 42.3323,-54.73686 63.0232,-82.53044 19.4239,-26.9266 45.967,-56.57087 59.0218,-87.03211 l 64.5238,0 0,3.00111 0.5002,7.50277 1.5005,8.00295 1.0004,6.00221 40.515,140.05167 z m -98.0362,-101.53746 c -16.8229,30.13612 -43.5744,60.47231 -65.024,88.03248 l 88.0325,0 c -4.2766,-13.9885 -9.045,-28.4605 -13.505,-42.51569 l -2.0007,-7.00258 -2.0008,-6.00221 -1.5005,-5.00185 -1.0004,-4.00148 -1.5005,-10.00369 0,-13.00479 -0.5002,-1.00037 0,-0.50019 -1.0004,1.00037 z m -338.12473,0 c -9.12837,16.36437 -22.24987,33.94586 -34.01255,48.5179 -6.32733,8.72822 -13.48831,16.91457 -20.00738,25.50941 l -3.0011,4.00148 -2.50093,3.50129 -2.50092,2.50092 -1.50055,2.00074 -1.50056,1.50055 0,0.50019 88.03248,0 c -4.6934,-13.58835 -9.15338,-28.70226 -13.50498,-42.51569 l -2.00074,-7.00258 -2.00074,-6.00221 -1.50055,-5.00185 -1.00037,-4.00148 -1.50056,-10.00369 -0.50018,-8.50313 0,-5.50203 -0.50019,-0.50019 -0.50018,1.00037 z m 132.5489,205.57584 24.00883,-33.51237 c -5.8855,-14.41365 -10.7873,-29.18576 -15.5057,-44.01623 l -23.50867,30.51125 15.00554,47.01735" />
</svg>
